<?xml version="1.0" encoding="UTF-8"?>
<svg id="OBJECTS" xmlns="http://www.w3.org/2000/svg" viewBox="0 0 419.55 430.27">
  <defs>
    <style>
      .cls-1 {
        fill: #222220;
      }
    </style>
  </defs>
  <path class="cls-1" d="M123.73,196.05c-.76,.79-1.86,.86-2.8,1.24-1.78,.71-3.6,1.3-5.36,1.92-.36-.5-.13-.75,.13-.92,1.66-1.13,3.33-2.24,5-3.36,.73-.48,1.45-.96,2.43-1.61-1.04-.41-1.66,.08-2.3,.19-.63,.11-1.24,.33-1.88,.44-.71,.13-1.43,.21-2.15,.27-.64,.05-1.28,.02-1.93,.06-.7,.04-1.39,.13-2.62,.24,.62-.49,.81-.69,1.04-.81,2.75-1.51,5.63-2.74,8.64-3.66,.59-.18,1.3-.3,1.33-1.16,.07-.01,.15-.06,.22-.04,.05,.02,.08,.11,.11,.17-.1-.06-.2-.11-.3-.17-.44,.15-.87,.42-1.31,.42-2.8,.03-5.55,.41-8.3,.9-.31,.05-.63,.02-.95,.03l.02,.07c.14-.25,.21-.63,.42-.74,2.16-1.08,4.23-2.34,6.55-3.07,.6-.19,1.18-.47,1.87-.74-1.2-.38-1.2-.38-2.97-.17-1.04,.12-2.08,.23-3.12,.34-1.04,.11-2.07,.21-3.11,.32-.31-.51,.07-.77,.35-1.02,.92-.83,2.06-1.23,3.23-1.56,1.16-.33,2.32-.66,3.47-1.02,.27-.08,.49-.31,.8-.51-.69-.58-1.37-.35-1.96-.3-2.72,.22-5.44,.52-8.16,.81-.22,.02-.42,.2-.63,.31l.04-.05c.15-.24,.26-.64,.47-.7,1.94-.57,3.78-1.35,5.6-2.23,.78-.38,1.69-.5,2.54-.75,.44-.13,.88-.28,1.84-.58-2.2-.52-3.87-.08-5.52-.11-1.57-.03-3.15,.2-5.26,.1,2.35-1.08,4.34-1.42,6.26-1.97,1.9-.54,3.96-.43,5.88-1.37-.63-.6-1.27-.52-1.89-.52-2.25-.01-4.51-.03-6.76-.06-.54,0-1.08-.12-1.99-.23,1.95-1.19,3.84-1.2,5.58-1.69,1.68-.47,3.5-.17,5.62-1.11-3.76-.16-7.02-.31-10.28-.45-.02-.11-.04-.21-.06-.32,.3-.1,.59-.23,.9-.28,.87-.15,1.75-.22,2.62-.4,2.28-.49,4.55-1.04,6.91-1.04,.35,0,.62-.1,.69-.48,.06,.06,.11,.13,.18,.16,.06,.02,.14,0,.21-.01-.12-.03-.24-.06-.36-.09-2.31-.42-4.63-.6-6.97-.21-.31,.05-.64,.05-.96,.03-.15,0-.29-.13-.43-.2,.75-.87,.79-.95,1.54-1.1,1.81-.36,3.63-.67,5.45-1.01,.62-.11,1.23-.24,1.98-.39q-1.14-.65-1.73-.69c-2.65-.2-5.3-.4-7.95-.61-.31-.02-.61-.12-.92-.43,3.71-.38,7.43-.76,11.64-1.19-2.35-1.17-4.56-1-6.49-1.71,.06-.56,.39-.54,.71-.55,2.41-.05,4.82-.13,7.17-.67,.15-.55-.23-.58-.53-.62-1.99-.24-3.98-.46-6.06-.7,1.23-.66,1.85-.79,3.59-.76,1.26,.02,2.53,.33,3.74-.1,.07-1.13-1.35-.58-1.37-1.66,.92-.08,1.84-.14,2.76-.24,.87-.09,1.73-.22,2.6-.34-.34-.86-.52-1.13-.94-1.17-.88-.08-1.76-.14-2.65-.16-6.05-.15-11.37,1.99-16.29,5.29-1.4,.94-2.73,2-4.02,3.09-5.19,4.41-7.24,10.16-6.71,16.81,.32,3.93,1.09,7.82,2.28,11.6,1.29,4.07,2.51,8.17,3.76,12.25,.76,2.48,1.8,4.83,3.09,7.08,1.9,3.31,4.47,5.9,7.91,7.56,1.52,.73,3.08,1.41,4.68,1.96,5.43,1.87,11.01,3.11,16.74,3.61,1.36,.12,2.73,.29,4.07,.53,5.17,.93,9.57,3.29,13.1,7.19,1.46,1.61,2.88,3.26,4.2,4.99,3.36,4.4,7.28,8.16,12.06,11.02,4.91,2.94,9.83,5.85,15.21,7.89,4.08,1.55,8.23,2.84,12.57,3.43,3.29,.44,6.59,.5,9.87-.04,4.29-.71,8.57-1.46,12.85-2.26,1.8-.34,3.48-.23,5.19,.51,2.84,1.22,5.47,2.79,7.89,4.66,4.63,3.56,9.77,6.23,15.01,8.73,2.84,1.35,5.68,2.69,8.54,3.98,2.33,1.05,4.21,2.61,5.84,4.57,2.76,3.32,5.02,6.91,6.19,11.11,1.03,3.68,1.52,7.44,.92,11.23-.56,3.55-2.36,6.49-5.03,8.87-.88,.79-1.73,1.67-3,2.11-1.11-.88-1.67-2.15-2.48-3.23-.27-.36-.31-.95-.93-.97,.02-.17,.05-.35,.07-.52-.07,0-.13,.01-.2,.02,.06,.16,.13,.32,.19,.47,.06,.71,.14,1.43,.17,2.14,.05,1.12,.13,2.25,.06,3.36-.02,.39-.45,.75-.8,1.27-.37-.46-.67-.73-.83-1.06-.99-2.02-1.95-4.06-2.91-6.09-.2-.42-.25-.95-.85-1.06,.17-.89,.13-.98-.73-1.51,.03-.11,.06-.22,.09-.34,.05,.04,.1,.08,.15,.13-.1,.05-.19,.1-.29,.15,.28,.51,.56,1.03,.84,1.54,.02,.8,.07,1.6,.06,2.39-.02,1.69-.06,3.37-.13,5.06-.01,.27-.2,.54-.41,1.07-.31-.45-.53-.67-.63-.93-1.19-3.17-2.36-6.34-3.54-9.51-.14-.37-.34-.71-.51-1.07-.08-.11,.2-.45-.22-.33,.1,.1,.2,.19,.3,.29-.04,.47-.16,.94-.11,1.4,.27,2.89,.17,5.77,.03,8.66,0,.21-.15,.41-.31,.85-.27-.62-.49-1.03-.64-1.47-.88-2.67-1.75-5.34-2.63-8.01-.15-.47-.3-.94-.92-.89,.12-.11,.26-.21,.32-.34,.03-.07-.07-.21-.12-.32-.02,.07-.04,.14-.06,.21-.04,.14-.08,.28-.12,.43,.18,.85,.45,1.7,.53,2.56,.19,2.24,.29,4.48,.41,6.73,.01,.22-.09,.44-.2,.99-2.31-4.4-3.45-8.92-5.16-13.24-.1,2.33,.68,4.56,.83,6.87,.15,2.28,.79,4.52,.51,6.89-.24-.48-.5-.96-.7-1.45-1.94-4.76-3.87-9.52-5.79-14.29-.16-.4-.37-.7-.85-.67,.12-.09,.26-.17,.31-.28,.03-.07-.09-.2-.14-.3-.04,.05-.1,.09-.11,.14-.01,.14,0,.28,0,.42,1.13,5.61,1.84,11.28,2.29,16.98,.02,.21-.14,.43-.3,.89-.23-.57-.38-.91-.5-1.27-1.66-4.96-3.32-9.93-4.99-14.89-.15-.46-.31-.92-.56-1.33-.08-.14-.43-.13-.65-.19,.14-.08,.3-.14,.36-.26,.04-.07-.07-.22-.12-.34-.04,.05-.11,.09-.12,.14-.04,.14-.05,.29-.07,.44,.11,1.52,.35,3.03,.32,4.55-.08,3.78-.02,7.54,.24,11.31,.06,.85,.23,1.73-.13,2.68-.18-.24-.32-.35-.35-.48-1.23-5.57-2.44-11.14-3.67-16.7-.13-.57,.03-1.32-.77-1.58,.02-.15,.03-.3,.03-.44,0,.13,0,.27,0,.4-.13,1.43-.18,2.86-.42,4.27-.14,.84-.56,1.63-1.03,2.91-.31-1.22-.46-1.96-.69-2.67-.16-.5-.06-1.15-.72-1.4,.07-.45,.13-.89,.2-1.34-.08-.36-.17-.73-.25-1.09-.07,0-.13,0-.2,0,.07-.08,.13-.15,.2-.23,0,.07,0,.14-.01,.21-.22,.45-.07,.8,.27,1.1-.3,.42-.54,.83-.15,1.31-.34,1.22,.11,2.4,.3,3.57,.2,1.2,.32,2.38,.34,3.58,.02,1.45,.17,2.89,.23,4.33,.03,.64-.02,1.28-.06,1.92,0,.12-.18,.23-.39,.5-.27-.66-.35-1.28-.48-1.88-.9-4.26-2.16-8.4-3.64-12.5-.98-2.72-1.73-5.52-2.58-8.29-.07-.23-.18-.44-.42-1.03-.09,.71-.19,1.05-.17,1.39,.29,5.14,.61,10.27,.89,15.41,.07,1.35,.07,2.7,.1,4.42-.88-.79-.72-1.53-.87-2.15-.16-.62-.28-1.26-.42-1.88-.15-.71-.29-1.42-.46-2.12-.17-.7-.36-1.4-.56-2.1-.17-.62-.36-1.24-.54-1.85-.21-.69-.42-1.38-.63-2.08-.18-.62-.34-1.24-.52-1.86-.2-.69-.43-1.38-.63-2.08-.2-.7-.38-1.4-.57-2.09-.17-.62-.33-1.24-.51-1.86-.2-.66-.42-1.31-.74-2.32-.14,.6-.25,.82-.24,1.04,.23,3.37,.25,6.75,.09,10.12-.08,1.76,.04,3.54-.01,5.3-.02,.79-.24,1.57-.37,2.35l.07-.04c-.16-.6-.34-1.2-.47-1.81-.47-2.29-.86-4.59-1.39-6.86-1.02-4.4-2.1-8.78-3.16-13.16-.11-.46-.25-.9-.52-1.34-.98,7.36-.38,14.8-1.4,22.16-1.59-10-3.97-19.86-5.15-29.99-.09,.39-.23,.77-.26,1.16-.62,8.11-1.23,16.22-1.86,24.34-.04,.46-.16,.92-.4,1.39-.71-1.96-.93-4.01-1.32-6.02-.4-2.05-.69-4.13-.98-6.21-.28-1.99-.49-4-.78-5.99-.3-2.06-.66-4.12-1.04-6.52-1.45,2.34-3.33,3.86-5.02,5.56-.81,.81-1.3,1.82-1.75,2.87-.43,1.01-.66,2.14-1.6,3.18-.39-2.19,.52-3.95,.93-5.77,.41-1.8,1-3.56,1.58-5.58-1.08,.74-1.39,1.82-2.05,2.61-.66,.81-1.27,1.67-1.85,2.53-.63,.93-1.2,1.91-1.83,2.84-.57,.84-.91,1.86-2.09,2.66,.36-2.16,.94-3.96,1.35-5.8,.4-1.8,.86-3.58,1.37-5.7-.42,.58-.73,.9-.91,1.27-.68,1.47-1.56,2.81-2.64,4.03-1.92,2.18-3.71,4.46-4.89,7.16-.11,.25-.39,.42-.73,.55,1.17-4.52,3.08-8.75,4.32-13.24-2.19,2.36-4.04,4.96-6.09,7.41-2,2.4-4.03,4.78-6.12,7.25,.15-1.58,.86-3.3,3.13-7.68,1.25-2.42,2.52-4.83,3.68-7.32-1.33,.99-2.08,2.45-3.12,3.67-1.15,1.35-2.28,2.71-3.46,4.04-1.12,1.26-2.27,2.51-3.45,3.72-1.16,1.19-2.09,2.61-3.83,4.07,.87-2.5,1.97-4.25,2.8-6.11,.82-1.83,1.8-3.6,2.79-5.35,1.02-1.81,2.14-3.56,3.38-5.6-1.16,.5-1.62,1.26-2.18,1.9-3.09,3.5-6.09,7.09-9.43,10.37-1.14,1.12-2.05,2.48-3.08,3.72-.24,.29-.53,.54-1.03,1.06-.01-1.08,.33-1.68,.65-2.28,2.08-3.82,4.17-7.63,6.26-11.45,.23-.41,.43-.83,.54-1.33-5.02,4.78-9.69,9.88-14.44,14.93-.58-.45-.12-.89,.03-1.26,2.06-5.2,4.9-9.97,8.31-14.39,.34-.45,.69-.88,1.03-1.34,.03-.04-.04-.15-.11-.35-.52,.44-1.03,.81-1.47,1.26-1.58,1.61-3.12,3.26-4.69,4.88-2.69,2.78-5.38,5.55-8.08,8.32-.49,.5-1.02,.98-1.67,1.6,.2-1.74,.68-2.79,4.3-8.91,1.63-2.75,3.4-5.42,5.04-8.19-5.34,4.83-10.12,10.22-15.6,15.49,.55-2.26,1.75-3.78,2.58-5.45,.82-1.65,1.82-3.23,2.83-4.78,1.03-1.6,2.17-3.14,3.02-4.89-3.5,3.6-7.01,7.21-10.48,10.78-.73-.39-.45-.89-.31-1.31,1.31-3.94,3.26-7.52,6.13-10.56,.03-.13,.05-.26,.08-.38-.04,.13-.07,.26-.11,.39-.46-.23-.76,.08-1.05,.34-3.3,2.92-6.59,5.85-9.89,8.77-.16,.14-.41,.19-.59,.27-.5-.24-.26-.58-.15-.82,1.03-2.24,1.86-4.6,3.67-6.4,0-.16,.01-.3,.03-.44,0-.07,.02-.14,.03-.2-.08,.09-.22,.19-.21,.27,.01,.14,.12,.27,.19,.4-.2-.12-.41-.25-.65-.4-.33,.23-.65,.47-.99,.68-1.53,.93-3.13,1.15-4.85,.52-2.73-1-4.74-2.66-5.53-5.59-.72-2.66-1.25-5.32-.88-8.1,.52-3.93,2.42-7.14,5.17-9.87,2.93-2.91,6.22-5.32,9.92-7.23,7.94-4.1,16.28-6.94,25.13-8.29,.13-.02,.25-.16,.4-.26-.79-.55-1.67-.44-2.54-.44-3.91,.02-7.69,.81-11.37,2.05-5.03,1.71-10.07,3.42-14.88,5.71-1.61,.76-3.2,1.52-4.56,2.69-.18,.16-.39,.28-.58,.43-1,.79-2.08,1.19-3.37,.79-.36-.11-.78-.05-1.27-.07-.56,.99-1.1,1.95-1.71,3.05-.54-.4-.97-.72-1.39-1.05-1.35-1.02-2.66-2.08-4.04-3.04-4.68-3.28-9.71-6.04-14.27-9.5-1.79-1.36-3.77-2.47-5.72-3.6-3.38-1.97-5.89-4.71-7.6-8.21-.71-1.45-1.45-2.88-2.14-4.33-.84-1.76-1.85-3.38-3.45-4.59-.5-.38-.93-.89-1.32-1.39-.46-.59-.36-1.19,.15-1.72,1,.61,1.94,1.31,2.98,1.81,2.4,1.17,4.17,2.95,5.56,5.2,1.36,2.19,2.86,4.29,4.27,6.44,.81,1.23,1.85,2.23,3.03,3.09,2.73,2,5.42,4.04,8.35,5.74,2.5,1.45,4.85,3.17,7.34,4.66,1.72,1.03,3.55,1.9,5.35,2.79,.57,.28,1.21,.53,1.83,.58,2.16,.18,4.33,.28,6.49,.38,.29,.01,.6-.15,.83-.21,.26-.62-.09-.84-.46-.99-.29-.11-.63-.11-.95-.16q-1.75-.27-2.89-1.62-2.08,1.28-4.07,.31c-.54-1.02,.26-2.01,.13-3.12-1.11,.18-1.32,1.35-2.13,1.8-1.43-.28-1.67-.54-1.32-1.59,.2-.61,.52-1.18,.76-1.77,.17-.42,.31-.84,.61-1.66-1.62,1.23-2.26,3.4-4.65,2.69,.54-1.48,1.04-2.89,1.64-4.55-1.65,.76-2.28,2.27-3.46,3.09-.48-.27-.71-.59-.41-1.01,.6-.84,.68-1.77,.63-2.78-.65-.2-.87,.31-1.11,.63-.38,.5-.68,1.06-.98,1.56-.85-.04-.83-.52-.65-1,.57-1.59,1.17-3.16,1.75-4.72-.57-.38-.83-.04-1.08,.24-.76,.84-1.48,1.7-2.26,2.52-.26,.27-.61,.46-1.02,.75-.34-.49-.59-.89-.87-1.27-.55-.74-.49-1.49-.09-2.27,.36-.7,.97-1.32,.82-2.2,.34,.19,.52,.12,.47-.3-.14,.12-.29,.25-.43,.37-.53,.48-1.04,.99-1.6,1.44-.28,.23-.65,.35-1.05,.56-.04-1.64-.02-1.69,1.26-4.09,.64-1.2,1.3-2.39,2.17-3.98-1.5,.96-2.33,2.01-3.3,2.88-.99,.89-1.9,1.87-3.42,2.94,.64-2.58,2-4.19,2.87-6.03,.86-1.81,1.88-3.53,2.66-5.46-.31,.26-.67,.49-.93,.8-.62,.74-1.18,1.53-1.77,2.3-1.48,1.92-3.2,3.6-5.1,5.1-.03,.03-.13-.03-.2-.05-.06-.14-.21-.3-.17-.4,.77-2.03,1.5-4.07,2.38-6.05,.45-1.02,1.14-1.94,1.78-2.86,.45-.65,1.01-1.22,1.68-2.02-.81-.05-1.18,.4-1.6,.65-.55,.34-1.02,.79-1.55,1.16-.46,.32-.98,.56-1.45,.88-.46,.32-.9,.68-1.32,1.06-.47,.43-.91,.92-1.36,1.37-.38,.38-.64,.94-1.31,.93,.33-2.04,1.44-3.62,6.26-8.92-.45-.45-.7,.04-.98,.22-1.36,.86-2.61,1.86-4.15,2.44-.73,.28-1.32,.9-1.98,1.36-.45,.31-.9,.61-1.75,1.17,.7-1.91,1.87-2.88,2.88-3.97,.98-1.06,2.04-2.05,3.04-3.05-.16-.49-.51-.41-.77-.27-.92,.48-1.84,.99-2.73,1.53-.83,.5-1.61,1.07-2.43,1.58-.19,.12-.44,.15-.66,.22-.06-.11-.11-.17-.12-.24,0-.07,0-.17,.04-.23,.14-.19,.27-.4,.45-.56,2.12-1.97,4.24-3.94,6.37-5.92-.83-.08-.82-.07-2.05,.55-.79,.4-1.63,.7-2.41,1.11-.72,.37-1.39,.82-2.08,1.23-.68,.4-1.37,.79-2.46,1.42,.23-.69,.24-1.01,.41-1.16,1.75-1.54,3.53-3.06,5.3-4.58,.59-.5,1.2-.99,1.81-1.49-.17-.16-.25-.26-.27-.25-1.75,.8-3.58,1.39-5.36,2.07-1.32,.51-2.43,1.55-3.64,2.35-.3,.2-.62,.37-1.12,.32,.24-.28,.44-.61,.72-.84,1.68-1.38,3.37-2.74,5.06-4.1,.68-.55,1.51-.98,1.52-2.02,.41,.26,.84,.53,1.31,.27,.35-.2,.94-.2,.92-.84-.88-.24-1.5,.32-2.19,.63-1.46-.51-2.85-.32-4.22,.34-.8,.38-1.61,.74-2.43,1.08-.26,.11-.56,.1-1.14,.2,.63-1.16,1.54-1.5,2.31-1.98,.82-.52,1.64-1.04,2.49-1.48,.79-.4,1.63-.68,2.44-1.06,.84-.39,1.84-.52,2.68-1.39-1.62-.49-3.04-.07-4.44,.08-1.41,.14-2.77,.7-4.47,.56,.7-1.01,1.64-.99,2.4-1.29,.82-.33,1.69-.54,2.53-.81,.84-.28,1.69-.54,2.51-.88,.78-.33,1.76-.21,2.51-1.04-.68-.78-1.54-.91-2.39-.97-.88-.06-1.77,0-2.65-.05-.62-.04-1.24-.2-1.85-.61,.6-.06,1.2-.14,1.8-.18,1.04-.08,2.07-.06,3.05-.56,.46-.23,1.09-.15,1.65-.19,.54-.04,1.09-.04,1.88-.07-1.11-1.03-2.03-1.89-3.1-2.89,1.27-.53,2.24-.04,3.22,.08,1.01,.13,2.04,.39,3.03-.15-.07-.79-.61-1.08-1.12-1.19-2.2-.5-4.41-.95-6.62-1.36-.45-.08-.98,.02-1.43,.17-5.5,1.85-9.85,5.17-12.47,10.4-1.67,3.33-2.57,6.95-2.97,10.67-.26,2.4-.38,4.82-.61,7.22-.13,1.36-.36,2.71-.6,4.06-.06,.34-.34,.64-.71,1.28-1.09-4.85-2.23-9.29-2.02-13.93,.23-4.83,1.52-9.38,3.71-13.66,1.43-2.8,2.98-5.54,5.08-7.91,.74-.84,1.55-1.64,2.39-2.38,1.56-1.37,3.36-1.84,5.4-1.29,.77,.21,1.56,.37,2.34,.55,.21-.58-.18-.79-.5-.95-3.49-1.67-5.67-4.47-6.82-8.07-.88-2.76-1.66-5.56-2.34-8.38-.65-2.66-1.15-5.36-1.64-8.05-.45-2.51-1.79-4.29-4.11-5.29-1.69-.73-3.43-1.37-5.2-2.07-.18-.42,.14-.64,.5-.86,.55-.33,1.13-.64,1.64-1.03,2.44-1.86,5.26-2.79,8.21-3.34,2.61-.48,5.25-.86,7.87-1.28,1.11-.18,2.22-.39,3.34-.55,3.24-.46,5.95-2.03,8.29-4.2,2.52-2.35,4.65-5.1,7.6-7.24-.96-1.31-1.89-2.43-2.64-3.65-.76-1.23-1.37-2.55-1.99-3.86-.62-1.3-.83-2.73-1.45-4.48,.82,.45,1.25,.68,1.73,.94,.03-.23,.1-.4,.05-.48-1.04-1.71-1.38-3.58-1.4-5.55-.01-1.02-.14-2.05-.24-3.33,.61,.53,1.01,.87,1.59,1.37,.04-.53,.13-.88,.09-1.21-.22-1.76-.25-3.5,.14-5.26,.43,.04,.73,.06,1.1,.09,.1-.84,.15-1.7,.32-2.53,.16-.79,.42-1.56,.67-2.32,.27-.83,.59-1.64,.98-2.72,.41,.49,.67,.79,.92,1.1,.13-.08,.35-.14,.38-.25,.32-1.32,.61-2.66,.91-4.01,1,.02,.66,1.28,1.57,1.42,.16-.93,.11-1.97,.53-2.77,.95-1.82,.71-3.44-.09-5.24-.54-1.22-.61-2.66-.85-4-.05-.28,.08-.6,.14-1.04,2.35,.68,4.59,1.34,6.83,1.96,.76,.21,1.5,.5,2.35,.18,.37-.14,.92,.09,1.35,.25,2.25,.84,4.49,1.72,6.76,2.6,.39-.82-.64-1.1-.53-1.76,.12,.01,.27-.01,.38,.04,1,.52,1.96,1.11,2.99,1.56,1.52,.67,2.76,1.64,3.62,3.07,.83,1.38,1.66,2.76,2.49,4.15,.23,.39,.45,.79,.8,1.13-.76-2.41-2.21-4.58-2.56-7.36,1.13,.24,1.79,.9,2.52,1.43,.72,.51,1.45,1.02,2.1,1.62,.69,.64,1.29,1.38,2.1,2.26,.21-.74,.35-1.23,.49-1.71,.22,.06,.41,.06,.49,.15,1.66,1.86,3.31,3.74,4.96,5.61,.55-.14,1.01-.25,1.46-.36q3.85,2.46,5.53,7.19c.51,.11,.43-.32,.49-.57,.61-2.41,1.94-4.41,3.52-6.26,.78-.92,1.65-1.77,2.46-2.67,.48-.54,.93-1.11,1.39-1.67,1.04-1.29,1.82-2.66,1.14-4.5,8.51,1.06,16.85,1.23,25.18,.04,2.39-.34,4.77-.8,7.15-1.19,1.38-.22,2.73-.09,4.05,.38,1.83,.65,2.95,1.89,3.23,3.84,.35,2.42-.14,4.65-1.55,6.66-1.16,1.67-2.64,3.03-4.17,4.35-.97,.84-1.93,1.72-2.8,2.66-1.28,1.38-2.09,3.02-2.69,4.81-1.14,3.34-1.47,6.73-1.24,10.24,.32,4.76,.87,9.46,2.19,14.06,1.19,4.16,3.01,7.99,5.45,11.53,1.47,2.14,3.23,4.02,5.36,5.52,.17,.12,.29,.32,.54,.61-.35,.05-.59,.16-.75,.1-.82-.34-1.68-.63-2.41-1.11-1.03-.68-2.15-1.09-3.31-1.43-4.73-1.4-9.18-3.5-13.72-5.39-1.35-.56-2.5-1.46-3.5-2.53-.42-.46-.84-.92-1.46-1.59-.08,1.76,.65,2.86,1.61,3.8,1.44,1.4,2.88,2.82,4.47,4.05,4.46,3.46,9.39,5.89,15.06,6.71,2.8,.4,5.57,.86,8.4,.81,2.32-.04,4.48,.52,6.42,1.8,1.81,1.2,3.66,2.35,5.41,3.64,3.05,2.24,5.99,4.63,9.06,6.85,2.3,1.67,4.38,3.54,6.21,5.71,1.93,2.28,3.85,4.55,5.82,6.79,.33,.37,.58,1.03,1.49,.79-.08-.43-.06-.91-.25-1.29-.85-1.64-1.61-3.36-2.67-4.86-3.32-4.69-7.21-8.87-11.79-12.38-2.3-1.76-4.56-3.58-6.83-5.39-.36-.28-.66-.64-1.23-1.2,2.05,.19,3.68-.21,5.3-.62,2.19-.56,4.37-1.13,6.54-1.73,3.53-.97,6.76-2.6,9.9-4.44,2.43-1.43,4.9-2.79,7.4-4.11,2.6-1.37,5.38-2.1,8.32-2.29,3.66-.24,7.03,.79,10.26,2.31,3.13,1.47,6.18,3.13,9.31,4.61,3.35,1.59,6.74,3.08,10.13,4.6,2.8,1.26,5.69,1.57,8.74,1.15,3.24-.45,6.31-1.28,9.09-3.05,.61-.39,1.25-.74,1.9-1.06,2.35-1.17,4.77-1.97,7.45-1.46,.22,.04,.47-.04,.89-.09-.33-.64-.57-1.21-.91-1.72-2.04-3.05-3.41-6.34-4.31-9.92-.74-2.96-1.96-5.8-2.97-8.69-.37-1.06-.84-2.1-1.12-3.19-.49-1.88-1.6-3.31-2.99-4.59-1.01-.93-1.99-1.88-3.01-2.8-1.27-1.15-2.25-2.5-3.06-4.01-3.65-6.74-7.79-13.18-12.36-19.34-2.93-3.94-6.52-7.11-11.03-9.18-3.35-1.54-6.88-2.26-10.52-2.55-4.27-.34-8.53-.17-12.78,.45-3.46,.51-6.71,1.59-9.86,3.11-4.2,2.02-7.84,4.74-11.11,8.03-2.2,2.22-3.88,4.72-4.76,7.74-.17,.59-.42,1.17-.66,1.83-.28-.16-.54-.22-.67-.38-2.4-2.86-5.17-5.28-8.35-7.26-1.5-.93-2.92-2.01-4.38-3.01-.58-.4-1.18-.77-1.75-1.13-.59,.47-.28,.96-.23,1.39,.25,2.01-.31,3.84-1.23,5.57-.46,.86-1.1,1.55-1.9,2.15-2.16,1.59-4.4,2.94-7.12,3.18-.29-.4-.13-.64,.13-.87,1.28-1.1,2.52-2.27,3.86-3.3,1.92-1.47,3-3.3,3.07-5.75,.04-1.37,.2-2.73,.34-4.09,.05-.46,.19-.91,.3-1.4,4.73,.41,9.06,1.81,13.51,4.19-.25-.64-.31-.9-.45-1.12-3.02-4.61-7.21-7.74-12.3-9.75-3.82-1.51-7.61-3.1-11.45-4.57-1.88-.72-3.81-1.31-5.75-1.84-1-.27-2.06-.41-3.1-.42-2.57-.03-4.85,1.7-5.62,4.14-.14,.45-.26,.9-.39,1.34-.7,.09-.72-.34-.66-.71,.4-2.78,2.02-4.68,4.4-6,1.89-1.04,3.96-1.29,6.09-1.22,2.85,.1,5.6,.8,8.28,1.65,4.77,1.52,9.59,2.82,14.54,3.58,.79,.12,1.55,.44,2.33,.63,.61,.15,1.24,.24,1.77,.34,.94-.66,.76-1.7,1.23-2.45,.61-.06,.45,.48,.59,.77,.21,.42,.38,.86,.59,1.28,.02,.05,.14,.05,.32,.1,.73-.36,.59-1.41,1.25-1.89,.93-.24,1.01,.89,1.68,1.08,.11-.09,.29-.16,.33-.28,.22-.69,.37-1.4,.61-2.08,.28-.8,.8-.81,1.4-.06,.15,.18,.27,.37,.48,.67,.66-.9,.71-2.24,2.22-2.45,.25,.42,.55,.93,.84,1.44,.2-.06,.42-.05,.48-.15,.49-.72,1.11-1.37,1.19-2.33,.05-.62,.6-.66,1.17-.67,.18,.5,.37,1.02,.6,1.66,.51-.61,.96-1.15,1.39-1.66,.61,.22,.88,1.08,1.65,.53,.06-.04,.51,.45,.84,.75,.4-.36,.79-.72,1.2-1.09,.79,.51-.03,1.28,.44,1.78,.66-.12,1.33-.24,1.95-.35,.61,.92,.16,1.79,.14,2.78,.74-.68,1.37-1.27,2.01-1.86,.95,1.19-.1,2.01-.56,3.13,.81-.41,1.35-.69,1.89-.96,.13,.22,.3,.39,.27,.46-.35,.7-.73,1.39-1.11,2.1,.61,.39,.87-.14,1.23-.37,.31-.21,.63-.41,1.08-.7,.45,1.2-.48,1.94-.67,2.98,2.33-.17,4.31-1.12,6.41-1.48,2.13-.37,4.29-.59,6.64-.91-.35-.45-.59-.82-.88-1.14-3.07-3.34-6.49-6.26-10.37-8.63-3-1.83-6.26-2.98-9.69-3.63-4.19-.8-7.99,.34-11.48,2.65-.87,.58-1.69,1.23-2.52,1.87-2.06,1.59-4.3,2.84-6.79,3.62-.29,.09-.61,.13-1.2,.25,.24-.48,.32-.76,.49-.97,2.03-2.4,4.19-4.68,6.52-6.79,6.3-5.71,13.43-6.84,21.35-4.06,6.34,2.23,11.48,6.12,15.82,11.15,1.36,1.57,2.94,3,3.7,5.16,.65,.02,1.28,.09,1.9,.07,3.51-.16,6.91,.42,10.26,1.38,2.17,.62,4.32,1.31,6.48,1.97,.46,.14,.92,.33,1.39,.42,2.05,.39,3.72-.71,4.1-2.78,.14-.78,.05-1.6,.02-2.4-.03-.56-.21-1.12-.21-1.68,0-1.81,1.4-2.99,3.21-2.69,2.43,.41,4.35,1.71,5.75,3.69,.97,1.38,1.8,2.87,2.53,4.39,.98,2.03,1.87,4.11,2.7,6.21,.88,2.22,2.39,3.78,4.52,4.8,2.12,1.01,4.31,1.79,6.57,2.42,2.88,.79,5.72,1.67,8.44,2.94,3.51,1.64,5.92,4.13,6.66,8.02,.18,.94,.18,1.91,.27,2.89,1.44,.87,2.26,1.08,4.62,1.13,.24-.42,.55-.88,.78-1.37,1.29-2.76,1.74-5.69,1.68-8.7-.02-.71-.21-1.43-.38-2.13-.19-.74-.67-1.28-1.38-1.59-.37-.16-.74-.33-1.12-.46-2.62-.9-4.99-2.26-7.22-3.87-6.12-4.43-10.9-9.96-14.16-16.83-1.77-3.73-3.32-7.52-4.31-11.52-.27-1.09-.48-2.2-.66-3.32-.14-.86-.19-1.74-.29-2.72,.39,.15,.65,.24,1.1,.41-.29-1.24-.62-2.36-.82-3.51-.19-1.11-.3-2.24-.33-3.36-.03-1.19,.07-2.39,.11-3.63,.51,.15,.86,.25,1.26,.36,.39-2.4,.58-4.8,1.32-7.36,.48,.58,.81,.97,1.25,1.5,.81-1.08,.86-2.34,1.37-3.4,.48-1.02,.95-2.05,1.33-3.11,.39-1.11,.67-2.27,.99-3.36,.67-.09,.77,.38,.96,.7,1.31,2.22,2.61,4.45,3.91,6.68,2.16,3.72,5.05,6.88,7.81,10.13,1.25,1.47,2.4,3.03,3.63,4.52,1.16,1.39,1.87,2.98,2.36,4.72,1.44,5.13,2.41,10.36,3.13,15.63,.92,6.71,1.85,13.41,3.18,20.05,.06,.3,.23,.58,.35,.87l-.05-.07c.11,.88,.23,1.76,.34,2.63,.3,2.41,.31,4.83-.19,7.21-.2,.94-.57,1.84-.93,2.73-.3,.74-.71,1.43-1.15,2.31,2.73,.73,5.41,1.19,8.06,1.7,2.59,.5,5.23,.79,8.02,1.2-.31,.22-.53,.41-.78,.55-2.71,1.54-3.86,4.05-4.17,6.97-.35,3.2,.19,6.28,1.8,9.1,.87,1.53,1.85,3.01,2.84,4.48,.29,.43,.8,.72,1.38,1.22,.21-.56,.36-.9,.46-1.25,1.18-4.28,2.76-8.41,4.49-12.5,1.12-2.63,2.86-4.85,4.54-7.11,2.31-3.1,4.76-6.1,7.54-8.8,7.45-7.2,16.29-10.8,26.73-10.05,.87,.06,1.72,.46,2.59,.47,.87,.01,1.73-.32,2.61-.38,1.28-.09,2.57-.08,3.86-.09,.23,0,.58,0,.66,.14,.39,.63,.93,.48,1.49,.4,1.6-.24,3.2-.3,4.92,.07,.11,.3,.25,.65,.38,1.01,.15,.03,.34,.13,.44,.07,2.37-1.32,5.05-1.61,7.61-2.27,2.02-.52,4.07-.89,6.44-1.39-1.18,1.69-1.88,3.3-2.32,4.99-.43,1.62-.77,3.27-1.19,5.1,.57-.22,1.03-.4,1.5-.58,.06,.27,.15,.43,.11,.55-.63,2.16-1.31,4.31-1.89,6.49-.28,1.02-.57,1.99-1.83,2.73,1.55,.43,2.19-.71,3.33-.9-.19,1.17-1.01,1.86-1.5,2.69-.57,.97-1.2,1.91-1.87,2.82-.61,.84-1.31,1.62-1.98,2.44,.25,.5,.65,.28,.98,.11,1-.48,1.99-1,3.07-1.55-1.24,2.93-3.47,6.2-5.66,8.33,.04,.43,.35,.48,.67,.42,.68-.12,1.35-.26,2.54-.49-2.39,2.29-4.06,4.55-7.05,5.88,1.06,.2,1.73,.33,2.34,.45,.32,.88-.16,1.36-.6,1.82-2.56,2.69-5.27,5.21-8.49,7.13-.47,.28-.91,.6-1.57,1.03,.8,.53,1.42,.93,2.2,1.45-1.86,1.07-3.65,1.77-5.43,2.44-1.95,.73-3.97,1.33-6,1.81-5.7,1.35-11.47,1.56-17.28,.93-2.48-.27-4.97-.48-7.45-.77-.96-.11-1.91-.33-2.84-.56-2.17-.54-4.29-1.25-6.5-2.06,.79-1.74,1.83-3.13,3.22-4.25,3.57-2.88,7.17-5.74,10.75-8.61,1.63-1.31,3.28-2.61,4.85-4,1.18-1.05,2.45-1.43,4-1.21,1.91,.27,3.81,.42,5.6,1.3,.9,.45,2.03,.59,3.06,.61,4.93,.11,9.82-.28,14.57-1.73,.22-.07,.43-.21,.97-.49-.57-.05-.83-.12-1.06-.08-5.23,1.07-10.43,.46-15.61-.38-1.59-.26-3.16-.55-4.74-.87-.36-.07-.68-.31-.99-.46,.06-.29,.04-.48,.12-.59,1.24-1.6,2.3-3.3,3.01-5.2,.38-1.01,1.02-1.59,2.17-1.53,4.62,.22,8.66-1.64,12.59-3.72,2.49-1.32,4.92-2.78,6.91-4.84,.78-.8,1.53-1.62,2.3-2.43,.02-.15,.05-.29,.05-.43,0-.07-.06-.15-.1-.22-.01,.07-.04,.15-.03,.22,.02,.15,.05,.3,.08,.44-.4-.18-.75-.15-1.07,.2-.65,.71-1.27,1.48-2.02,2.07-4.27,3.41-9.04,5.87-14.32,7.32-1.34,.37-2.69,.42-4.25,.23,.14-.5,.18-.98,.4-1.34,1.62-2.59,3.25-5.19,5.44-7.38,.27-.27,.49-.6,.91-1.14-.83,.02-1.24,.37-1.61,.67-3.45,2.78-6.9,5.56-10.3,8.4-1.54,1.29-3.03,2.67-4.4,4.14-1.31,1.4-2.44,2.97-3.75,4.61-.09-1.18-.16-2.27-.26-3.35-.11-1.2-.26-2.4-.37-3.61-.1-1.12-.18-2.25-.26-3.37-.09-1.12-.19-2.25-.26-3.37-.07-1.13-.14-2.25-.16-3.38-.02-1.21,.04-2.42,.02-3.62-.02-1.09,.13-2.19,.18-3.52-.39,.34-.57,.41-.59,.52-.19,1.19-.46,2.38-.52,3.58-.17,3.38-.25,6.76-.37,10.14-.06,1.77-.14,3.54-.18,5.31-.04,1.5-.51,2.86-1.33,4.09-.85,1.27-1.7,2.55-2.68,3.72-2.01,2.4-4.1,4.73-6.24,7.17-.08-1.24-.14-2.41-.25-3.58-.11-1.12-.31-2.24-.39-3.36-.09-1.2-.06-2.42-.16-3.62-.09-1.09,.14-2.21-.27-3.51-.63,.97-.68,1.86-.76,2.7-.34,3.45-.63,6.9-.94,10.35-.04,.48-.1,.96-.1,1.45,.01,2.9-1.16,5.32-3.01,7.44-2.88,3.31-5.06,7.05-7.06,10.93-.86,1.67-1.06,3.3-.8,5.13,.48,3.35,.75,6.72,1.22,10.07,.33,2.31,0,4.51-.85,6.63-.77,1.94-1.7,3.81-2.62,5.85,.3,.11,.63,.3,.98,.35,6.33,.87,12.52,2.31,18.55,4.42,2.68,.94,5.09,2.44,7.39,4.06,1.04,.72,1.95,1.7,2.72,2.71,3.53,4.66,6.14,9.82,8.13,15.32,3.48,9.65,5.01,19.64,5.18,29.86,.05,2.99-.1,5.98-.98,8.86-.49,1.61-1.03,3.25-1.85,4.7-2.15,3.81-5.4,5.91-9.9,5.64-2.01-.12-4-.38-6-.59-.63-.06-1.26-.15-2.13-.25,.21,.53,.28,.92,.49,1.18,.97,1.18,1.91,2.39,3,3.46,2.14,2.09,4.64,3.72,7.21,5.23,1.68,.98,3.44,1.3,5.34,.99,.77-.12,1.55-.21,2.6-.35-.29,.48-.42,.75-.6,.98-1.7,2.25-3.37,4.52-5.13,6.72-1.71,2.13-3.45,4.26-5.31,6.26-1.81,1.95-3.92,3.6-6.27,4.89-1.83,1.01-3.64,2.1-5.54,2.96-5.71,2.58-10.84,6.08-15.55,10.14-6.48,5.58-13.97,8.94-22.22,10.64-6.5,1.34-13.11,1.53-19.72,.62-1.91-.26-3.84-.49-5.74-.82-4.11-.72-7.89-2.28-11.24-4.79-.83-.62-1.62-1.36-2.25-2.18-1.66-2.18-3.23-4.43-4.37-6.94-.26-.59-.52-1.19-.88-1.72-2.89-4.17-5.78-8.35-8.72-12.48-1.79-2.51-3.93-4.69-6.59-6.31-.47-.29-.9-.67-1.3-1.06-.13-.12-.09-.41-.16-.81,.58,.06,1.04,.1,1.49,.16,4.87,.64,9.73,1.47,14.62,1.86,3.19,.25,6.45,.03,9.64-.3,9.87-1.02,18.94-4.4,27.3-9.73,2.66-1.69,5.23-3.48,7.62-5.54,4.62-4,7.01-9.15,7.77-15.12,.11-.87,.1-1.78,.02-2.65-.35-4.09-.75-8.18-1.14-12.27-.04-.47-.15-.93-.32-1.97-.27,.95-.45,1.33-.49,1.73-.1,1.03,.07,2.09-.49,3.04-.43,.1-.81,.19-1.2,.27,.05,.14,.05,.35,.14,.4,.76,.38,1.07,.93,.73,1.92-.27,.1-.63,.23-.98,.36-.35,.14-.71,.28-1.08,.44,.25,.78,.92,.75,1.35,1.04,.58,.39,.64,.87,.28,1.6-1.02,0-2.12,.01-3.51,.02,.55,.48,.89,.86,1.31,1.13,.47,.31,1.03,.47,1.49,.79,.51,.35,.68,.88,.33,1.62-1.66-.3-3.37-.61-5.12-.93,.08,.9,.83,.89,1.27,1.2,.52,.37,1.14,.59,1.73,.84,.58,.25,1.18,.46,1.72,.66,.09,.65-.31,.87-.69,.85-.63-.03-1.27-.19-1.89-.35-1.39-.36-2.78-.76-4.62-1.28,.44,.6,.55,.9,.77,1.04,1.22,.78,2.46,1.51,3.69,2.28,.23,.14,.43,.34,.88,.72-.96,.24-1.54-.03-2.12-.16-.63-.14-1.25-.31-1.87-.48-.7-.19-1.41-.37-2.1-.59-.61-.2-1.2-.48-1.81-.68-.55-.18-1.06-.74-1.82-.3,.93,.73,1.81,1.38,2.65,2.08,.79,.65,1.54,1.34,2.53,2.21-2.86-.43-5.32-1.33-8.2-2.07,.84,1.05,1.82,1.32,2.52,1.93,.65,.57,1.44,1,1.93,1.7-.18,.49-.51,.41-.81,.32-1.47-.44-2.93-.9-4.39-1.34-.84-.25-1.69-.49-2.58-.75-.24,.8,.42,.82,.72,1.04,1.24,.89,2.53,1.7,3.77,2.59,.28,.2,.43,.58,.87,1.21-3.03-.63-5.63-1.31-8.2-2.18-.24,.68,.32,.67,.56,.84,.85,.6,1.75,1.14,2.61,1.74,.51,.35,1.06,.7,1.17,1.35-.07,.13-.09,.22-.15,.25-.06,.03-.16,.02-.24,0-2.37-.78-4.73-1.57-7.1-2.35-.07-.02-.16,0-.43,0,1.46,1.79,3.89,2.32,4.99,4.33-.37,.49-.77,.17-1.07,.04-1.79-.73-3.56-1.5-5.34-2.26-.74-.32-1.47-.63-2.21-.95-.13-.15-.24-.33-.39-.45-.05-.04-.21,.07-.32,.12,.05,.05,.1,.12,.16,.14,.2,.06,.41,.1,.62,.15,.14,.97,1.08,1.08,1.68,1.53,1.62,1.19,3.28,2.33,4.91,3.5,.31,.22,.57,.53,1.26,1.19-1.72-.47-2.74-1.16-3.86-1.58-1.13-.42-2.21-.97-3.33-1.41-1.16-.45-2.22-1.19-3.87-1.42,2.53,2.4,5.37,3.82,7.55,5.96-.17,.58-.52,.5-.79,.38-3.75-1.68-7.88-2.33-11.55-4.21-.05-.03-.14,.01-.43,.05,2.37,2,4.63,3.9,6.99,5.89-.29,.17-.5,.39-.63,.36-3.7-1.12-7.41-2.24-10.76-4.24-.2-.12-.37-.29-.56-.44-.41-.12-.82-.24-1.23-.35,0,.03-.02,.07-.02,.1l1.26,.27c-.2,.32-.14,.58,.16,.82,1.26,1,2.51,2.02,3.78,3.01,1.07,.84,1.99,1.82,2.85,2.8-.4,.54-.65,.21-.91,.12-1.05-.39-2.09-.84-3.16-1.19-2.13-.7-4.28-1.36-6.49-2.06,1.51,1.74,3.51,2.93,5.14,4.45-.07,.53-.38,.56-.7,.44-1.57-.63-3.13-1.28-4.68-1.93-.59-.25-1.17-.53-1.77-.77-.27-.11-.58-.14-1.09-.26,.42,1.57,1.99,2.03,2.55,3.27-1.46,.1-2.09-.03-4.13-.94-1.24-.55-2.44-1.16-3.94-1.88,.84,1.76,2.72,2.2,3.3,3.71-.12,.15-.16,.23-.22,.27-.06,.04-.15,.08-.21,.06-2.13-.69-4.26-1.4-6.5-2.13,.15,.87,1.39,.73,1.38,1.75-1.59-.21-3.15-.5-4.72-.6-1.6-.1-3.22,.07-4.82-.05-3.82-.28-7.42-1.45-10.89-3.02-3.52-1.6-7.14-3-10.38-5.15-1.67-1.11-3.25-2.36-4.87-3.57-.1-.08-.1-.28-.16-.44,.1-.47,.48-.33,.76-.3,2.48,.28,4.97,.55,7.44,.88,4.84,.64,9.65,.31,14.45-.34,7.39-.99,14.46-3.23,21.4-5.86,5.2-1.97,10.33-4.11,15.35-6.52,4.38-2.1,8.4-4.79,12.4-7.5,7.71-5.21,13.88-11.95,19.3-19.45,2.8-3.87,5.19-7.95,7.24-12.25,1.31-2.75,2.03-5.59,1.37-8.67-.47-2.16-1.42-4.1-2.58-5.96-.56-.89-1.11-1.78-1.61-2.7-.13-.24-.03-.6-.02-.9,0-.05,.11-.09,.17-.14,.15,.02,.38,0,.43,.08,.67,1.03,1.68,1.42,2.81,1.68,2.61,.59,5.27,.66,7.92,.85,1.53,.11,3.06,.15,4.58,.3,.88,.09,1.74,.3,2.6,.52,.28,.07,.67,.28,.75,.52,.39,1.14,1.23,1.06,2.16,.96,.66-.07,1.36-.61,2.15,.15-.68,.57-1.33,1.12-1.92,1.61,.05,.61,.4,.59,.7,.51,1.05-.28,2.09-.59,3.24-.92-.21,1.28-1.69,1.49-2.05,2.5,.75,.86,1.77,.03,2.61,.62-.18,.3-.33,.56-.5,.83,.84,.86,1.79-.25,2.81,.19-.3,.94-1.53,.83-1.93,1.78,.3,.07,.58,.2,.84,.18,.48-.04,.94-.18,1.65-.32-.18,.49-.22,.91-.44,1.15-.42,.47-.95,.85-1.44,1.26,.31,.57,.74,.29,1.06,.21,.62-.15,1.21-.44,1.84-.59,.35-.08,.75,0,1.34,.03-.54,1.13-1.4,1.52-2.19,2-.75,.46-1.49,.95-2.27,1.44,1.11,.43,2.13,.48,3.1-.03,.91-.48,1.75-1.11,2.94-1.87-.44,.87-.71,1.41-1.01,2.02,.8,.41,1.5,.77,2.2,1.13-1.07,.82-1.69,1.03-4.22,1.34-1.51,.18-3.03,.32-4.91,.52,1.36,.79,2.56,.46,3.65,.69,1.1,.23,2.23,.32,3.35,.49,1.14,.17,2.36-.03,3.55,.54-1.77,1.23-3.98,1.62-10.93,1.97,4.31,1.47,8.43,2.02,13.06,2.72-.9,.28-1.28,.46-1.69,.51-3.67,.51-7.36,.89-11.07,.86-.53,0-1.07,.1-1.61,.26,4.6,1.47,9.39,2.01,14.35,3.44-1.11,.55-2,.45-2.83,.59-.95,.15-1.92,.25-2.88,.33-.88,.07-1.77,.11-2.65,.12-.97,.02-1.93-.01-2.9-.02-.86,0-1.71,0-3.09-.01,1.06,.81,1.86,.84,2.57,1.04,.7,.2,1.41,.35,2.11,.52,.79,.18,1.58,.34,2.36,.52,.79,.18,1.57,.36,2.36,.54,.71,.17,1.42,.31,2.11,.52,.73,.22,1.45,.49,2.24,.76-.51,.68-1.09,.61-1.62,.62-2.17,.04-4.35,.05-6.52,.08-1.53,.02-3.06,.06-4.59,.08-.42,0-.8,.06-1.02,.48-.35-.15-.69-.29-1.03-.44-.02,.04-.03,.09-.05,.13,.36,.1,.72,.21,1.07,.31,3.39,.72,6.78,1.45,10.17,2.15,1.65,.34,3.31,.62,4.96,.93-.01,.72-.5,.67-.82,.68-2.9,.06-5.8,.11-8.69,.1-2.81-.01-5.62-.1-8.49-.16,.09,.51,.55,.43,.85,.54,.37,.14,.78,.19,1.17,.29,5.62,1.39,11.24,2.77,16.84,4.15,.02,.62-.36,.52-.63,.52-3.3-.1-6.6-.22-9.9-.32-2.72-.09-5.44-.16-8.3-.24,.14,.75,.65,.75,1.06,.85,3.46,.79,6.93,1.53,10.37,2.38,2.11,.52,4.18,1.19,6.25,1.91-5.78-.18-11.54-.4-17.3-.21-.03,.15-.07,.23-.06,.3,.01,.06,.09,.12,.15,.15,.14,.07,.29,.14,.44,.19,1.53,.5,3.06,1.01,4.6,1.49,.61,.19,1.25,.34,1.87,.49,.86,.21,1.73,.41,2.59,.6,.7,.15,1.41,.27,2.12,.41,.04,0,.06,.1,.16,.28-.31,.11-.58,.29-.87,.3-2.17,.09-4.34,.15-6.51,.23-1.44,.06-2.9,.08-4.33,.25-.68,.08-1.5,.26-1.63,1.17-.09,.65,.47,1.19,1.65,1.45,1.1,.24,2.23,.34,3.34,.52,1.91,.32,3.81,.65,5.71,.99,.28,.05,.54,.2,1.05,.4-1.7,.54-3.11-.02-4.53,.03-1.37,.05-2.74-.03-4.11,0-1.44,.04-2.89,.09-4.46,.74,.34,.26,.54,.5,.79,.6,1.05,.41,2.1,.83,3.18,1.14,1.47,.43,2.96,.77,4.45,1.12,.55,.13,1.11,.22,1.67,.24,2.01,.05,4.02,.09,6.04,.09,.96,0,1.93-.08,2.89-.13,2.39-.14,4.26-1.27,5.87-2.99,2.6-2.76,4.35-5.93,5.37-9.6,1.25-4.49,1.47-9.04,1.37-13.65-.17-7.08-1.61-13.91-4.04-20.54-1.31-3.58-3.17-6.88-5.31-10.02-1.15-1.69-2.72-2.98-4.39-4.11-2.21-1.49-4.55-2.73-7.02-3.76-6.81-2.85-13.93-3.99-21.26-3.81-2.32,.06-4.64,.48-6.95,.82-.52,.07-1.05,.4-1.47,.73-3.54,2.83-7.4,5.15-11.39,7.27-.49,.26-.95,.55-1.48,.86,1.65,3.81,2.48,7.7,2.34,11.78-.15,4.44-1.26,8.58-3.49,12.43-1.95,3.36-4.18,6.52-6.74,9.42-2.88,3.26-5.68,6.6-9.03,9.41-1.62,1.36-3.4,2.44-5.34,3.28-3.33,1.44-6.65,2.89-9.98,4.33-.58,.25-1.19,.45-1.96,.74,.08-.38,.06-.68,.18-.76,4.84-3.28,8.16-7.96,11.53-12.58,1.81-2.48,3.15-5.24,4.47-8,2.81-5.89,5.24-11.96,8.42-17.67,.9-1.62,1.86-3.2,2.77-4.82,.21-.38,.32-.82,.63-1.62-1.33,.76-2.26,1.36-3.05,2.16-1.99,2.01-3.77,4.19-5.13,6.69-.38,.7-.72,1.44-.99,2.2-2.02,5.71-4.39,11.27-7.35,16.55-3.57,6.37-8,12.06-13.71,16.71-4.32,3.52-2.74,2.68-8.02,4.07-7.09,1.87-14.26,3.41-21.57,4.2-7.55,.82-15.02,.47-22.12-2.47-3.49-1.44-6.81-3.29-10.16-5.06-2.42-1.28-4.7-2.82-6.75-4.65-.72-.64-1.39-1.34-2.09-2.01-.75-.72-1-1.59-.94-2.63,.27-5.01-.15-9.98-1.06-14.91-.71-3.82-1.75-7.55-3.45-11.05-2.2-4.52-3.69-9.29-4.89-14.15-1-4.02-1.11-8.13-.76-12.25,.05-.61,.29-1.25-.29-2.07-.84,2.49-1.51,4.78-2.01,7.13-1.24,5.84-.64,11.55,1.3,17.14,1.06,3.04,2.29,6.02,3.45,9.03,.47,1.2,.99,2.38,1.43,3.6,1.37,3.73,1.3,7.58,.85,11.46-.05,.39-.19,.78-.32,1.16-.13,.4-.66,.59-.98,.34-.62-.5-1.23-1.04-1.82-1.58-2.78-2.57-5.51-5.19-8.34-7.71-3.8-3.39-8.11-6.09-12.31-8.94-3.46-2.35-6.82-4.87-10.17-7.38-3-2.25-5-5.24-5.98-8.86-.91-3.34-1.7-6.72-2.54-10.08-.25-1.01-.48-2.04-.78-3.04-.1-.35-.36-.64-.83-1.44,.16,3.83,.16,7.11,.47,10.36,.58,6.18,3.64,11.1,8.18,15.16,2.66,2.38,5.79,4.07,8.77,5.99,3.53,2.26,7.08,4.48,10.6,6.75,4.84,3.12,9.03,6.97,12.82,11.31,2.38,2.73,4.95,5.3,7.59,7.78,1.63,1.54,3.47,2.89,5.36,4.11,3.32,2.14,6.69,4.19,10.14,6.11,1.81,1.01,3.81,1.67,5.78,2.52,.13,.41-.19,.63-.58,.79-2.7,1.06-5.39,2.14-8.11,3.16-2.36,.88-4.74,.78-7.1-.09-.68-.25-1.35-.53-2.04-.75-.62-.2-1.25-.35-1.92,.1-.13,.47-.28,.99-.44,1.51-.18-.06-.39-.07-.44-.17-.46-.84-.88-1.7-1.26-2.44-.69-.17-.65,.28-.79,.52-.16,.28-.23,.61-.42,.86-.12,.16-.42,.28-.6,.25-.19-.03-.46-.25-.5-.43-.14-.62-.19-1.27-.3-1.9-.1-.53-.24-1.05-.42-1.82-.84,.95-.56,2.18-1.5,2.94-.78-1.09-.78-2.55-1.9-3.39-.99,.59-.71,1.79-1.45,2.61-.2-.18-.52-.33-.57-.54-.23-1.1-.43-2.21-.56-3.32-.08-.71-.02-1.43-.02-2.2-.62,.05-.53,.55-.65,.85-.17,.45-.26,.93-.37,1.4-.1,.39-.16,.79-.29,1.17-.12,.34-.31,.66-.54,1.14-.74-.65-.43-1.35-.57-1.91-.17-.7-.28-1.42-.41-2.14-.11-.63-.2-1.26-.55-1.91-.22,1.21-.43,2.42-.72,4.02-1.08-2.02-1.43-3.85-1.66-6.2-.76,1.93-1.1,3.52-2.3,4.9-.8-2.46,.24-4.9-.51-7.37-1.88,1.51-2.3,3.79-3.55,5.43-.63,.07-.88-.26-.81-.69,.28-1.75,.6-3.49,.95-5.23,.22-1.08,.53-2.13,.91-3.63-1.91,2.53-3.53,4.68-5.32,7.05-.17-1.8,.13-3.33,.26-4.86,.13-1.49,.82-2.91,.77-4.89-1.65,1.83-1.92,4.09-3.66,5.32-.55-.2-.39-.61-.25-.96,.89-2.17,1.03-4.48,1.41-7.01-.97,.57-1.07,1.45-1.52,2.06-.48,.65-.83,1.38-1.3,2.04-.46,.63-.78,1.41-1.51,1.74-.15-.04-.25-.05-.3-.1-.04-.04-.05-.15-.03-.22,.37-1.23,.8-2.45,1.11-3.69,.39-1.56,.69-3.14,1.12-5.09-.43,.49-.69,.7-.84,.96-.62,1.14-1.34,2.17-2.25,3.12-.66,.69-1.1,1.58-1.64,2.38-.16,.23-.35,.45-.59,.76-.29-1.26-.24-1.24,.54-3.03,.39-.88,.65-1.82,.93-2.75,.3-.98,.57-1.97,1.02-3.51-1.18,1.16-1.81,2.07-2.55,2.87-.75,.81-1.54,1.59-2.44,2.5-.35-.78,.16-1.18,.31-1.65,.15-.46,.33-.91,.5-1.36,.2-.53,.4-1.05,.61-1.58,.17-.45,.36-.9,.51-1.36,.17-.54,.34-1.08,.43-1.63,.07-.43,.02-.88,.02-1.57-2.12,1.65-2.97,4.07-5.02,5.75-.34-.89-.12-1.51-.08-2.1,.03-.56,.15-1.12,.26-1.67,.13-.63,.29-1.26,.43-1.89,.13-.55,.25-1.1,.37-1.61-.39-.35-.62-.14-.8,.13-.48,.74-.91,1.52-1.42,2.24-.45,.63-.7,1.48-1.77,1.65-.55-1.14-.01-2.34-.16-3.49-.14-1.07-.11-2.16-.16-3.44-1.24,.92-1.11,2.59-2.56,3.26-.15-.31-.38-.61-.42-.94-.07-.56,.01-1.13-.02-1.69-.04-.7-.12-1.4-.19-2.12-1.06-.04-.67,1.1-1.33,1.25-3.7-3.58-8.43-5-13.38-5.91-4.27-.78-8.5-.45-12.73,.32-1.43,.26-2.86,.5-4.29,.74-.21,.03-.43-.04-1-.1,1.61-.96,2.95-1.75,4.23-2.51-.11-.65-.49-.55-.76-.51-1.59,.23-3.18,.49-4.77,.74q-1.03,.16-2.42-.35c1.15-1.33,3.05-1.5,4.18-2.99-.79-.28-1.42,.2-2.08,.29-.72,.1-1.43,.27-2.15,.34-.68,.06-1.33,.53-2.26,.22,.91-1.65,2.6-2.25,3.72-3.43-.49-.63-1.08-.79-1.74-.54-1.05,.41-2.07,.88-3.11,1.31-.36,.15-.73,.39-1.17-.19,.52-1.26,1.93-1.48,2.9-2.21,.96-.71,1.97-1.36,2.95-2.04-.38-.55-.79-.5-1.17-.39-1.38,.41-2.78,.79-4.13,1.3-.73,.27-1.37,.24-2.21-.14,1.29-.87,2.49-1.67,3.68-2.48,.74-.5,1.47-.99,2.2-1.49,.49-.34,.44-.81,.3-1.3,.28,.12,.55,.3,.85,.36,.86,.15,1.15-.09,1.49-1.26-.55,.33-.99,.64-1.47,.85-.25,.11-.57,.04-.86,.05Zm-16.98-85.45c-.12-.02-.24-.04-.37-.06,.01,0,.02-.03,.03-.03,.11,.04,.23,.08,.34,.12,.04,.31-.04,.72,.13,.91,1.7,1.97,3.6,3.74,6.12,4.58,3.3,1.09,6.69,1.78,10.19,1.77,2.18,0,4.35,.07,6.48,.6,.27,.07,.63,.25,.84-.26-.64-1.18-1.64-2.11-2.59-3.07-2.1-2.13-3.33-4.66-4.05-7.56-1.02-4.14-2.27-8.23-3.44-12.33-.09-.32-.3-.62-.45-.92,.02,2.05,.41,4,.6,5.97,.21,2.03,.47,4.09,.06,6.41-.5-.57-.83-.91-1.13-1.28-1.06-1.32-2.11-2.65-3.18-3.96-.23-.28-.42-.72-1.04-.42,.86,1.19,1.75,2.33,2.54,3.54,.84,1.28,1.72,2.55,2.34,3.94,.59,1.31,.97,2.73,1.26,4.14,.3,1.45,.75,2.9,.75,4.61-1.1-.13-2.07-.16-2.99-.38-1.49-.36-2.95-.81-4.41-1.28-2.79-.91-5.24-2.46-7.53-4.26-.23-.18-.34-.52-.51-.79Zm215.98,15.83c.28,.01,.64,.14,.84,.02,.62-.36,1.16-.87,1.78-1.23,.22-.13,.67-.12,.87,.03,.21,.15,.4,.6,.32,.83-.36,1.14-.81,2.26-1.23,3.38-.15,.4-.32,.79-.66,1.63,.66-.43,.94-.55,1.15-.76,1.04-1.01,2.05-2.05,3.1-3.05,.18-.17,.49-.2,1-.4-.6,1.94-1.17,3.6-.92,5.47,1.43-.28,1.54-2,2.69-2.53,.15,.24,.3,.37,.29,.49-.13,1.87-1.36,3.3-2.29,5.1,1.61-.4,2.57-1.44,4.1-2.23-.5,1.19-1.18,1.77-1.64,2.49-.5,.78-1.22,1.44-1.44,2.4,1.04,.36,1.87-.81,2.99-.08-1.2,1.51-3.15,2.05-4.41,3.59,1.48,.47,2.5-.89,3.73-.63,.2,.79-.35,1-.72,1.21-.62,.35-1.32,.57-1.98,.87-.07,.03-.07,.23-.11,.36,.61,.42,1.5-.39,2,.53-.23,1.1-1.72,1.01-2.2,2.2,1.03,.14,1.94,.27,2.91,.41-.54,.52-.97,.96-1.44,1.37-.5,.44-1.03,.86-1.9,1.57,1.12-.14,1.84,.05,2.3-.71v-.06c0,.7,0,1.41,0,2-.61,.3-1.05,.49-1.46,.73-.12,.07-.18,.24-.39,.53,.47,.03,.85,.02,1.21,.08,.39,.06,.96-.24,1.11,.48-.86,.63-2.17,.61-2.67,1.99,.94,.11,1.76,.2,2.62,.3-.62,1.42-2.32,.62-3.05,1.73,1.19,.2,1.31,.25,2.17,.87-.85,.37-1.64,.72-2.47,1.09,.64,.71,1.67-.42,2.19,.76-.69,.26-1.37,.52-2.25,.86,.57,.51,.99,.89,1.43,1.28-.63,.32-1.48-.38-1.86,.39,.31,.78,1.38,0,1.51,1.09-.77,.28-1.52,.51-2.24,.83-.24,.11-.39,.43-.58,.66-.12-.03-.24-.07-.36-.1,.02,.1,.04,.2,.06,.3,.09-.09,.18-.17,.28-.26,.71,.48,1.7,.02,2.67,.77-1.38,.64-2.88,.58-3.7,1.73,.6,.8,1.52-.08,2.08,.64-.58,1.78-2.65,1.28-3.68,2.39,.43,.61,1.11,.48,1.71,.6,.32,.07,.66,.1,.57,.66-.76,.22-1.56,.46-2.3,.68-.11,1.09,1.13,.62,1.23,1.52-.7,.07-1.4,.12-2.09,.23-.82,.13-1.07,.99-.5,1.64,.3,.34,.62,.66,1.04,1.09-1.54,.07-2.64,.56-3.25,1.84,.26,.35,.5,.67,.73,.98-.14,.12-.23,.26-.37,.31q-1.23,.49-2.56,2.1c-.2,.25-.46,.45-.71,.65-1.09,.83-2.16,1.69-3.28,2.47-5.88,4.05-12.33,6.99-18.84,9.83-.44,.19-.93,.26-1.38,.42-.32,.12-.82-.06-.93,.67,.55,.23,1.11,.55,1.71,.7,2.86,.74,5.78,.92,8.6,.04,3.69-1.16,7.44-2.28,10.89-3.97,4.77-2.33,9.29-5.18,13.5-8.46,1.91-1.48,3.93-2.81,5.89-4.23,1.24-.9,2.49-1.78,3.67-2.76,3.35-2.76,4.88-6.31,4.53-10.66-.13-1.69-.18-3.38-.4-5.06-.49-3.67-.18-7.19,1.21-10.67,.77-1.94,1.24-4,1.71-6.04,.61-2.67,.04-5.12-1.71-7.26-.61-.75-1.26-1.47-1.84-2.24-4.24-5.58-6.44-11.66-4.49-18.84-1.86,.19-3.68-.05-5.46-.46-6.44-1.49-12.96-2.57-19.49-3.59-4.25-.66-8.51-.6-12.77-.4-.59,.03-1.29-.04-1.65,.6,.73,1.05,1.43,2.01,2.08,3.02,.63,.98,.58,2.3,1.33,3.24,1.93-.98,2.41-1.08,4.29-.77,2.38,.4,4.75,.84,7.09,1.25,.19,.41,.36,.76,.54,1.14,1.73-.33,3.39-.42,4.98,.33-.12,.58-.22,1.08-.35,1.71,1.3-.27,2.4-.5,3.5-.73,.42-.09,.8-.07,1.06,.48-.29,.5-.62,1.05-.93,1.6-.22,.39-.23,.76,.19,1,1.23-.01,1.78-1.34,3.13-1.57-.23,1.47-.93,2.51-1.63,3.56-.02,.13-.04,.25-.04,.27,0-.03,.03-.16,.06-.3Zm6.77,144.85c.01-.54-.27-.62-.88-.42,.41,.16,.68,.27,.95,.38,.45,.44,.85,.95,1.37,1.29,2.87,1.9,5.01,4.52,7.15,7.15,.23,.29,.37,.65,.71,1.27-1.94-.68-3.31-1.65-4.73-2.53-1.37-.85-2.72-1.74-4.16-2.44-1.48-.72-2.73-1.92-4.77-2.35,1.51,1.25,2.82,2.19,3.95,3.31,1.2,1.19,2.29,2.49,3.3,3.84,1.57,2.1,1.99,3.08,2.07,4.27-3.82-1.86-6.76-4.98-10.84-6.85,1.48,1.71,2.84,3.09,3.97,4.64,1.1,1.5,2.62,2.77,3.2,4.94-4.03-1.7-7.1-4.46-10.75-6.37,.5,1.1,1.38,1.89,2.04,2.82,.7,.98,1.42,1.96,2.06,2.98,.62,.99,1.45,1.9,1.63,3.46-1.18-.28-1.88-.94-2.67-1.41-.76-.45-1.49-.96-2.24-1.43-.76-.47-1.29-1.37-2.46-1.45,.8,2.19,2.42,3.8,2.99,5.86-.41,.62-.84,.57-1.26,.18-1.43-1.3-2.83-2.63-4.26-3.93-.29-.27-.44-.8-1.1-.72,.36,.92,.66,1.76,1,2.57,.44,1.04,.92,2.06,1.36,3.1,.11,.26,.26,.62-.37,.76-1.1-1.95-3.39-2.39-5.21-4.1,.22,1.34,.92,2.03,1.29,2.86,.16,.36,.34,.73-.24,1.12-.28-.14-.67-.26-.97-.48-1.32-.94-2.52-2.01-3.48-3.33-.21-.29-.39-.74-.94-.5,.57,2.27,2.34,4.01,2.95,6.39-1.12,.08-1.76-.59-2.46-1.05-.74-.49-1.44-1.04-2.08-1.64-.71-.66-1.33-1.4-2-2.1-.59-.61-1.01-1.39-2.14-2.12,.25,.77,.34,1.12,.48,1.45,.68,1.55,1.39,3.09,2.07,4.64,.15,.35,.34,.76-.24,1.03-1.88-1.37-3.5-3.02-4.92-4.88-.17-.23-.33-.57-.75-.22,.22,1.36,.91,2.55,1.49,3.78,.15,.31,.54,.64,.03,1.04-1.62-.99-3.24-1.98-4.87-2.98-.18,1.05,.81,1.82,.45,2.95-.61-.17-1.18-.26-1.66-.5-.57-.28-1.09-.69-1.6-1.08-.45-.34-.84-.75-1.27-1.11-.45-.39-.72-1-1.53-1.39,.26,1.56,1.08,2.57,1.73,3.7-1.88,.79-3.53,.54-5.06-.62-.58-.44-1.14-.89-1.72-1.33-.24-.18-.4-.54-.84-.3,.06,.21,.07,.46,.2,.63,1.55,2,3.39,3.7,5.67,4.79,2.85,1.36,5.84,2.3,8.96,2.86,10.96,1.97,21.66,.86,32.16-2.65,2.08-.69,4.02-1.69,5.82-2.93,1.79-1.23,3.51-2.57,5.21-3.92,3.1-2.45,6.04-5.11,9.56-6.97,4.13-2.18,8.21-4.48,12.58-6.17,4.9-1.89,8.93-5.03,12.66-8.84-1.43-.89-2.78-1.72-4.13-2.56-2.55-1.59-4.66-3.69-6.79-5.78-1.85-1.82-3.5-3.77-4.88-5.97-.68-1.08-1.53-2.07-2.39-3.03-.77-.86-1.74-1.38-2.98-1.35-.8,.02-1.6-.18-2.39-.3-1.29-.2-2.54-.31-3.77,.34-.46,.24-1.09,.2-1.64,.25-.6,.05-1.2,.05-2.11,.08,1.01,.86,1.97,1.03,2.85,1.35,.91,.33,1.85,.58,2.77,.88,.92,.3,1.83,.61,2.75,.92,.88,.3,1.76,.59,2.84,.95-.7,.66-1.37,.45-1.95,.48-.64,.03-1.29-.05-1.93-.1-.64-.05-1.28-.13-1.92-.18-.64-.05-1.29-.08-1.93-.11-.72-.04-1.45-.06-2.17-.09-.64-.03-1.29-.06-1.93-.1-.64-.05-1.28-.13-1.93-.17-.56-.04-1.13-.3-2.22,.01,2.98,1.39,5.54,2.48,8.26,3.23,2.76,.76,5.62,1.09,8.58,2.13-1.41,.56-2.61,.46-3.78,.34-2.89-.28-5.76-.63-8.65-.95-.64-.07-1.28-.13-1.92-.23-.56-.08-1.11-.23-1.66-.3-.55-.07-1.08-.49-1.79-.05,5.25,2.73,10.77,4.38,16.48,5.54-.46,.75-1.18,.4-1.77,.47-.72,.09-1.45,.06-2.17,.07-.64,.01-1.29,.03-1.93,.02-.72-.01-1.45-.06-2.17-.09-.64-.03-1.29-.06-1.93-.13-.64-.07-1.28-.17-1.91-.28-.72-.12-1.43-.23-2.14-.37-.63-.13-1.26-.28-1.88-.44-.7-.18-1.39-.4-2.1-.57-.55-.13-1.1-.5-1.87-.29,.29,.32,.41,.55,.6,.66,2.91,1.56,5.8,3.14,8.75,4.62,1.21,.61,2.53,1.06,3.94,.95l-.03,.04c.06,.59-.38,.62-.76,.64-2.48,.09-4.95,0-7.35-.71-2.91-.87-5.8-1.78-8.72-2.67l-.6-.41c-.03,.07-.07,.14-.1,.21,.26,.06,.52,.11,.78,.17,.16,.25,.27,.57,.49,.75,3.22,2.63,6.46,5.23,9.68,7.85,.22,.18,.35,.46,.54,.73-.21,.08-.29,.14-.34,.13-3.93-1.57-7.95-2.92-11.66-5.01-.47-.27-1.05-.36-1.57-.54Zm-181.3-119.59l.04,.05c-.61-.82-1.23-1.64-2-2.67,.94,.13,1.66,.23,2.52,.36-1.1-1.67-2.73-2.13-4.47-2.67,1.55-.85,3.1,.24,4.6-.48-.55-.28-.99-.49-1.41-.72-.42-.23-.82-.51-1.26-.72-.43-.21-.9-.34-1.34-.56-.36-.18-.88-.02-1.22-.45,.9-.62,1.67-.09,2.44-.06,.8,.03,1.6,.06,2.31-.42-.54-.77-.54-.81-.44-2.05,.03-.4-.04-.81-.01-1.21,.09-1.45,.2-2.89,.31-4.34,.09-1.24,.61-2.35,1.23-3.38,1.21-2,3.67-2.97,5.87-2.3,1.98,.6,3.71,1.66,4.62,3.61,.58,1.23,1.18,2.51,1.43,3.83,.35,1.89,.48,3.83,.53,5.76,.05,1.93-.16,3.87-.14,5.8,.03,2.59-.02,5.16-1.38,8.03,1.12-1.03,1.47-1.88,1.82-2.76,1.15-2.87,1.65-5.89,2.02-8.94,.74-6.15-.05-12.03-2.87-17.62-1.09-2.16-2.06-4.37-3.65-6.24-.31-.36-.54-.8-.78-1.22-.07-.11-.04-.28-.06-.43,.6,.12,1.19,.25,2.1,.43-.58-.63-.92-1-1.34-1.45,.6-.43,1.09-.79,1.6-1.15-.62-.62-1.14-.25-1.66-.09-.42,.13-.85,.49-1.25-.02,.26-1.26,1.41-1.51,2.36-1.95-.5-.82-1.66-.57-1.83-1.54,.54-.78,1.78-.21,2.23-1.17-.54-.75-1.06-1.44-1.53-2.17-.08-.13,.06-.41,.1-.61,.69,.04,1.31,.07,1.91,.1,.36-1.56-1.28-2.49-1.01-4.1,.98,.28,1.87,.54,2.94,.85-.22-1.92-2.07-2.82-2.31-4.77,.63,.33,1.06,.51,1.44,.77,.59,.41,1.13,.9,1.73,1.3,.21,.14,.54,.09,.9,.15-.25-1.99-1.66-3.26-2.22-4.86,.34-.48,.69-.53,1.1-.31,.71,.38,1.29,1.08,2.25,1.12-.16-1.52-1.31-2.52-1.4-3.93,1.15-.18,1.76,1.27,2.98,.77,0-.89-1.12-1.49-.72-2.3,1.12-1.35,2.88-.59,4.12-1.52-2.41-1.59-5.13-2.61-10.84-4.11-.12,.1-.3,.18-.35,.3-.97,2.54-2.61,4.62-4.43,6.57-1.34,1.43-2.38,3.07-2.96,4.94-1.29,4.11-2.98,7.99-5.83,11.29-.11,.12-.21,.25-.29,.39-.66,1.12-1.14,2.29-1.38,3.59-.48,2.58-.34,5.14,.24,7.67,.65,2.83,1.34,5.65,2.02,8.46,.38,1.54,.73,3.08,.14,5.28-.57-3.08-2.35-4.72-4.09-6.39-.75-.73-1.51-1.45-2.27-2.17-3.24-3.05-7.03-5.14-11.34-6.16-4.16-.98-8.33-.95-12.35,.7-2.61,1.07-5.19,2.19-7.65,3.6-2.03,1.16-4.14,2.17-6.24,3.2-2.51,1.23-4.65,2.88-6.14,5.3-.42,.69-.87,1.36-1.35,2.01-2.17,2.95-4.95,5.04-8.49,6.09-2.88,.86-5.81,1.32-8.82,1.22-.61-.02-1.22,0-2.04,0,.29,.72,.49,1.23,.7,1.73,.49,1.19,1.05,2.36,1.46,3.58,.97,2.91,1.73,5.87,2.23,8.9,.6,3.67,1.66,7.23,3.12,10.65,1.81,4.23,5.25,6.61,9.38,8.17,.5,.19,1.11,.13,1.66,.15,.11,0,.23-.19,.37-.31,.2-.87-1.34-1.02-.82-2.11,.34-.16,.77-.37,1.18-.57,0-.71,.22-1.5-.03-2.1-.28-.69-.97-1.21-1.5-1.83,.87-.33,1.72,.7,2.61-.21-.37-.49-.76-.97-1.11-1.47-.34-.48-.95-.77-1.13-1.37,.95-.66,2.06,.2,2.82-.63-.96-.95-2.52-1.09-3.41-2.56,1.61,.17,3.01,.32,4.4,.47,.13-.12,.26-.24,.4-.35-.21-.13-.41-.28-.63-.38-1.3-.64-2.6-1.27-3.9-1.91-.23-.12-.67-.15-.32-.73,.43,.09,.89,.19,1.35,.3,.39,.09,.78,.23,1.17,.29,.4,.06,.82,.54,1.25,.04-.7-1.24-2.48-1.13-3.23-2.73,1.67,.48,3.11,.9,4.77,1.37-.42-.87-1.03-1.1-1.57-1.4-1.48-.83-2.97-1.62-4.43-2.46-.29-.17-.71-.39-.36-1.01,2.22,.64,4.46,1.28,6.7,1.93-.5-.71-1.14-1.14-1.87-1.45-1.63-.68-3.26-1.39-4.88-2.11-.34-.15-.78-.28-.51-.91,.92,.22,1.85,.47,2.8,.68,1.19,.26,1.19,.25,2.66-.14-1.07-.54-2.11-.97-3.05-1.58-.97-.62-2.15-.98-3.27-2.38,3.12,1.05,5.71,1.91,8.71,2.92-1.3-1.04-2.28-1.84-3.26-2.62q-2.02-1.6-2.54-2.79c1.11,.09,2.02,.55,2.97,.92,1.13,.44,2.26,.84,3.4,1.25,.23,.08,.46,.14,.7,.18,.16,.02,.33-.02,.64-.04-1.91-1.43-3.65-2.73-5.37-4.04-.07-.05,0-.29,0-.7,2.8,.55,5.18,2.37,8.48,2.67-1.18-.93-2-1.56-2.78-2.22-.61-.52-1.2-1.07-1.76-1.65-.13-.14-.19-.55-.09-.66,.19-.2,.57-.43,.78-.37,1.77,.54,3.52,1.14,5.29,1.72,.27,.08,.54,.15,.81,.23,0-.05,.02-.1,.02-.15-.29-.03-.58-.07-.87-.1-.07-.28-.06-.64-.23-.83-.71-.77-1.49-1.47-2.2-2.24-.25-.27-.41-.63-.67-1.04,1.67-1.18,3,.26,4.59,.37-.32-1.56-1.27-2.65-2.2-4.11,2.61,.52,4.32,2.24,6.72,2.98-.51-1.16-1.27-1.76-1.85-2.51-.56-.72-1.41-1.3-1.45-2.59,2.56,.46,4.09,2.71,6.62,3.15-1.06-1.92-2.61-3.4-3.07-5.77,1.73,1,2.87,2.5,4.81,3.18-.94-1.22-1.76-2.21-2.5-3.26-.17-.24-.07-.66-.11-1.2,1.58,.56,2.92,1.05,4.41,1.58-.66-1.23-1.82-1.99-2.17-3.4,1.9,.24,3.15,1.79,5.08,1.93-.19-1-.75-1.54-1.26-2.13-.56-.65-1.31-1.17-1.59-2.08,1.46-.13,2.13,1.37,3.73,1.6-.51-.51-.8-.78-1.07-1.07-.25-.26-.66-.45-.42-1.1,.6,.12,1.21,.19,1.8,.36,1.08,.32,2.13,.75,3.22,1.05,5.5,1.53,10.45,4.17,15.11,7.41,1.62,1.12,3.15,2.38,5.31,3.16-.53,.28-.78,.48-1.05,.54-.79,.15-1.61,.16-2.37,.38-1.95,.55-3.93,.81-5.95,.93-1.2,.07-2.42,.2-3.58,.49-1.72,.43-2.38,1.13-1.22,2.93,1.8,2.78,3.24,5.75,4.48,8.82,1.49,3.7,3.64,7.02,6.48,9.82,3.55,3.51,7.33,6.77,11.48,9.58,1.8,1.22,3.68,2.33,5.38,3.68,5.04,4.02,10.25,7.78,15.62,11.36,4.25,2.83,7.4,6.67,9.52,11.32,.84,1.83,1.68,3.66,2.44,5.53,1.27,3.13,3.27,5.72,5.75,7.95,.17,.15,.38,.56,.8,.1-.27-.37-.53-.77-.82-1.14-1.64-2.11-2.97-4.38-4.05-6.84-1.13-2.58-2.28-5.17-3.75-7.57-2.31-3.78-4.87-7.39-7.34-11.07-.31-.47-.69-.89-1.06-1.32-3.66-4.3-7.75-8.17-11.81-12.08-.34-.33-.79-.69-.87-1.1-.14-.75-.66-1.07-1.17-1.45-.56-.42-1.13-.83-1.7-1.24,.1-.34,.19-.56,.22-.8,.04-.29,.04-.58,.06-.84-.29-.08-.44-.14-.6-.17-.16-.03-.32-.02-.48-.05-1.43-.27-1.45-.31-1.33-1.93,0-.11-.13-.23-.21-.37-.44,.12-.88,.24-1.44,.4-.81-1.08-2.02-1.65-3.12-2.34,.2-.48,.35-.82,.49-1.15-.79-.23-1.53-.44-2.32-.67,.14-.47,.26-.9,.42-1.45-.93,.17-1.87,.79-2.53-.25,.35-.74,1.44-.82,1.42-1.79-.99-.13-1.93-.25-2.91-.38,.35-.91,1.62-.53,1.74-1.65-.61-.84-1.83-.56-2.75-1.1,.91-.94,2.28-.67,3.07-1.6-.79-.53-1.59-.54-2.39-.55Zm25.53,22.43c.06,.13,.13,.26,.19,.39,.37-.08,.76-.13,1.12-.26,1.97-.71,3.98-1.34,5.89-2.18,7.92-3.46,16.23-4.57,24.79-4.12,3.77,.2,7.35,1.2,10.24,3.77,2.28,2.03,4.53,4.12,6.36,6.6,1,1.36,2.05,2.69,3.05,4.06,1.47,2.02,3.41,3.35,5.75,4.2,3.83,1.4,7.82,1.89,11.85,2.12,2.25,.13,4.5,.18,6.76,.3,5.61,.29,10.74,1.99,15.32,5.27,2.23,1.6,4.31,3.37,6.16,5.41,1.24,1.37,2.54,2.7,3.81,4.04,1.82,1.91,4,3.23,6.51,4.02,5.44,1.72,10.66,.95,15.72-1.44,.31-.15,.53-.51,.85-.82-.47-.52-.84-.95-1.23-1.35-4.01-4.08-8.13-8.04-12.47-11.78-2.69-2.32-5.6-4.33-8.78-5.96-5.07-2.59-10.34-4.45-16.07-4.89-5.07-.39-10.13-.4-15.2-.21-4.44,.17-8.85-.19-13.25-.66-3.15-.34-5.9-1.55-8.06-3.94-1.35-1.49-2.79-2.91-4.11-4.43-1.96-2.26-4.1-4.33-6.42-6.21-1.24-1.01-2.56-1.97-3.97-2.73-5.3-2.85-11-3.5-16.89-2.77-2.34,.29-4.55,1.13-6.45,2.56-1.41,1.06-2.8,2.18-4.08,3.4-2.21,2.11-4.33,4.32-6.48,6.5-.33,.33-.61,.72-.91,1.08Zm105.56-91.64c.63,.29,1.19,.58,1.78,.8,3.69,1.38,5.89,4.07,6.94,7.8,.26,.92,.62,1.82,.92,2.7,2.37,1.17,4.74,2.21,5.93,4.78,1.07,.1,2.19-.4,3.23,.08,0,.54,0,.95,.01,1.36,1.17,.06,2.07-1,3.24-.24-.06,.48-.12,1-.21,1.75,.77-.35,1.39-.69,2.04-.9,.35-.11,.77,0,1.14,.01,.08,.42,.13,.72,.18,1.01,.47,.14,.91,.26,1.35,.39-.12,.58-.22,1.08-.35,1.72,.61-.15,.99-.27,1.38-.32,.56-.07,.93,.15,.97,.76-.33,.41-.65,.82-1.19,1.5,2.93-.02,5.39,1.08,8.18,1.04-.18-.48-.26-.78-.4-1.06-1.1-2.23-2.81-3.91-4.85-5.27-2.22-1.47-4.6-2.66-7.15-3.47-3.18-1.01-6.09-2.49-8.82-4.41-1.91-1.35-3.29-3.05-4.11-5.23-.62-1.66-1.18-3.35-1.94-4.95-.82-1.74-1.78-3.43-2.8-5.06-.72-1.16-1.79-2-3.15-2.46-.86,1.22-.33,2.62-.82,3.81-.49,1.18-.93,2.39-1.51,3.86Zm-148.31,13.46c0,.15-.04,.31,0,.44,.22,.6,.47,1.2,.72,1.8,2.17,5.1,3.44,10.39,3.33,15.97-.03,1.71-.22,3.37-.88,4.97-.17,.42-.25,.88-.4,1.45,2.62,.97,4.78,2.58,7.35,3.48-1.98-2.18-2.16-4.83-2.25-7.5-.01-.32-.03-.64-.02-.97,.06-3.53-.73-6.87-2.33-10.02-.55-1.08-1-2.2-1.58-3.27-1.18-2.19-2.28-4.43-3.95-6.35Zm140.56,83.15c.09,.14,.19,.28,.28,.42,.63-.34,1.28-.65,1.88-1.03,1.43-.91,2.83-1.85,4.24-2.78,5.56-3.71,10.16-8.38,14.05-13.79,1.36-1.89,2.7-3.81,4.04-5.71,.91-1.29,1.81-2.6,3-4.31-2.62,1.32-4.71,2.45-6.21,4.46-1.35,1.81-2.84,3.5-4.16,5.32-4.38,6.02-9.29,11.52-15.36,15.91-.63,.45-1.18,1.01-1.77,1.52ZM102.98,122.47c-.4,1.54-.95,2.94-.62,4.54,.29-.02,.57,.04,.75-.06,3.07-1.74,6.14-3.49,9.19-5.26,.08-.05,.08-.25,.16-.54-1.7,.42-3.31,.83-4.93,1.2-1.47,.33-2.94,.64-4.56,.11Zm23.77,81.27c.2-.12,.4-.21,.57-.35,.03-.03-.06-.22-.1-.33-.2,.1-.42,.19-.61,.31-.02,.01,.07,.21,.13,.38Zm203.32-56.4l.04-.11h-.16s.12,.11,.12,.11Z"/>
  <path class="cls-1" d="M123.16,302.64c1.4,2.06,3.44,2.67,5.63,3.07,2.22,.41,4.4,.97,6.6,1.47,.21-.37-.02-.59-.31-.73-3.57-1.78-6.5-4.45-9.57-6.93-.56-.45-1.06-1-1.52-1.55-2.37-2.86-4.45-5.93-6.3-9.14-.43-.75-.7-1.62-.93-2.47-.08-.3,.19-.69,.33-1.18,1.95,1.24,3.38,2.75,4.84,4.23,.62,.63,1.18,1.33,1.68,2.05,3.04,4.32,7.11,7.43,11.72,9.87,2.35,1.24,4.8,2.27,7.21,3.39,2.55,1.19,5.09,2.41,7.66,3.57,6.33,2.86,12.89,4.48,19.92,4.01,4.45-.3,8.75-1.35,13.07-2.27,.94-.2,1.89-.39,2.84-.57,1.71-.33,2.91,.24,3.78,1.83,1.08,1.98,2.28,3.89,3.53,5.76,3.06,4.59,7.29,7.87,12,10.65,4.89,2.88,10.12,4.96,15.44,6.84,.98,.35,1.94,.78,2.89,1.21,1,.45,1.36,1.28,1.34,2.35-.09,4.1-1.05,7.97-3.1,11.54-.3,.52-.32,1.28-1.23,1.51-.4-1.36-.79-2.71-1.27-4.35-.8,1.95-1.46,3.61-2.16,5.26-.7,1.67-1.43,3.33-2.24,5.2-.6-1.13-1.06-2.02-1.69-3.21-.26,.53-.38,.77-.49,1.02-.47,1.11-.78,2.31-1.42,3.31-1.44,2.22-2.82,4.46-3.84,6.89-.6-.13-.64-.56-.69-.95-.18-1.34-.34-2.68-.53-4.16-.32,.24-.59,.33-.67,.51-1.15,2.53-2.93,4.61-4.74,6.67-1.26,1.44-2.79,2.64-3.55,4.46-1.43-.52-.72-2.02-1.52-2.63-1.66,1.54-3.32,3.03-4.91,4.59-1.53,1.51-2.99,3.09-4.54,4.7-1.19-2.02-.13-4.04,.17-6.33-.83,.51-1.34,.87-1.89,1.15-.57,.3-1.18,.52-1.77,.78-.59,.26-1.2,.48-1.77,.79-4.03,2.2-8.06,4.4-12.07,6.65-.76,.43-1.4,1.06-2.1,1.61-.54,0-.63-.43-.68-.81-.09-.71-.1-1.42-.14-2.15-.65-.25-.88,.31-1.22,.52-2.18,1.38-4.29,2.86-6.5,4.18-9.69,5.78-19.41,11.51-29.11,17.27-2.77,1.65-5.62,3.14-8.67,4.25-.42-.67,.26-.85,.52-1.11,3.07-3,5.84-6.21,8.02-9.93,2.05-3.5,3.64-7.17,4.55-11.14,.81-3.53,.65-7.06,0-10.56-.71-3.81-1.97-7.47-3.27-11.12-.07-.2-.28-.35-.52-.63-.69,.8-1.33,1.55-2.29,2.66,.1-1.09,.21-1.69,.2-2.28,0-.64-.11-1.28-.21-1.92-.08-.56-.21-1.11-.33-1.66-.14-.63-.33-1.25-.42-1.89-.34-2.31-.66-4.62-.97-6.93-.08-.56-.11-1.12-.17-1.79-1.71,.72-2.39,2.41-3.81,3.72-.11-.54-.24-.82-.2-1.08,.32-2.4,.66-4.79,1-7.18,.35-2.47,.47-4.93-.23-7.55-1.04,.43-1.5,1.28-2.12,1.97-.61,.68-.88,1.68-2,2.27,.28-4.22,1.79-8.06,1.24-12.2-.99,.47-1.23,1.79-2.39,1.88-.27-1.34,.13-6.38,.88-10.96-.44-.36-.71,.02-1.02,.24-.43,.31-.87,.61-1.26,.88-.48-.38-.28-.69-.2-.98,.73-2.64,1.44-5.29,2.23-7.91,.66-2.17,1.72-4.17,2.88-6.1,.53-.89,1.09-1.78,2.33-2.44Zm26.8,30.64c-.62,.13-1.27,.18-1.84,.41-3.38,1.34-6.48,3.19-9.32,5.45-.74,.59-1.39,1.33-1.99,2.08-.27,.34-.32,.87-.47,1.31-.13-.01-.27-.02-.4-.03,.02,.09,.04,.19,.07,.28l.29-.32c.18-.14,.4-.26,.55-.44,2.1-2.36,4.62-4.16,7.41-5.59,1.56-.8,3.16-1.53,4.73-2.32,.39-.2,.96-.26,.95-.9,.46,.3,.82,.29,1.09-.45-.43,.21-.75,.36-1.07,.51Z"/>
  <path class="cls-1" d="M270.43,378.54c-.1-.54-.14-1.11-.31-1.63-1.48-4.63-2.42-9.35-2.67-14.21-.08-1.68-.31-3.35-.46-4.97,.46-.33,.66-.03,.88,.19,2.35,2.31,4.67,4.67,7.07,6.93,4.09,3.85,7.55,8.2,10.15,13.15,2.1,3.99,3.58,8.28,4.49,12.73,.41,1.97,.16,3.84-.67,5.66-.2,.44-.39,.89-.63,1.3-1.33,2.26-2.68,4.51-4.11,6.92-.93-.98-.5-2.08-.63-3.05-.12-.94-.02-1.91-.44-2.96-.25,.22-.5,.33-.53,.49-1.02,5-3.5,9.34-6.18,13.57-6.09,9.59-20.97,17.61-20.97,17.61,0,0-.2-8.58-.39-9.53-1.06-5.26-2.87-10.23-5.66-14.84-1.16-1.92-2.27-3.87-3.54-6.02-.25,1.04-.46,1.91-.74,3.06-.29-.49-.47-.78-.63-1.07-.72-1.35-1.42-2.71-2.17-4.04-.51-.91-1.13-1.77-1.63-2.69-.49-.9-.88-1.85-1.37-2.88-.54,.85-1.02,1.62-1.56,2.47-1.72-2.94-2.64-5.65-5.53-16.17-1.32,1.24-1.47,3.05-2.42,4.39-.62,.02-.55-.49-.63-.81-.61-2.45-.57-4.95-.5-7.45,.06-2.09,.17-4.18,.27-6.45-1.14,.62-1.76,1.91-3.19,1.82,.21-5.41,2.25-10.25,3.92-15.26-.4-.04-.74-.08-1.16-.12,.37-3.36,1.62-6.38,3.36-9.22,2.21-3.61,4.94-6.69,8.41-9.21,4.03-2.92,8.33-5.2,13-6.84,3.67-1.29,7.14-3.05,10.43-5.07,7.77-4.76,11.84-11.86,12.45-20.94,.17-2.58-.05-5.15-.44-7.71-.07-.46-.12-.91-.18-1.35,.57-.19,.66,.2,.81,.42,1.96,2.96,3.87,5.95,5.85,8.88,.72,1.06,1.54,2.07,2.42,3,1.44,1.52,2.98,2.95,4.46,4.42,.27,.27,.5,.56,.89,1-1.23,.13-2.25,.25-3.46,.38,1.59,1.36,3.06,2.57,4.46,3.84,1.37,1.25,2.67,2.57,4.01,3.85,1.38,1.32,2.87,2.54,4.01,4.07-.46,.81-1.12,.24-1.75,.53,3.77,4.55,6.53,9.63,8.67,15.3-.66-.05-1.09-.08-1.63-.12,.08,1.14,.66,2.03,1.1,2.95,1.42,2.93,2.37,6,2.67,9.24,.14,1.52,.1,3.06,.11,4.59,0,.38-.11,.77-.18,1.19-1.14,.15-1.38-1.14-2.42-1.23-.17,.71,.2,1.35,.29,2.01,.11,.8,.27,1.59,.39,2.39,.1,.72,.19,1.44,.24,2.16,.05,.8,.07,1.61,.07,2.42,0,.72,0,1.45-.06,2.17-.05,.72-.16,1.44-.26,2.16-.11,.8-.22,1.6-.38,2.39-.15,.69-.38,1.37-.61,2.15-1.74-.66-1.56-2.77-3.04-3.81-.12,6.53-2.17,12.42-4.33,18.51-.85-.75-.84-1.67-1.03-2.48-.17-.75-.18-1.56-.95-2.49-.34,1.65-.57,2.97-.9,4.27-.32,1.25-.73,2.47-1.12,3.7-.41,1.29-.85,2.57-1.3,3.93-.69-.36-.67-.97-.71-1.48-.3-3.77-1.62-7.21-3.29-10.55-.18-.36-.35-.73-.48-1.11-2.22-6.62-6.06-12.24-10.63-17.42-1.92-2.17-3.79-4.39-5.63-6.62-4.58-5.53-7.03-12.07-8.8-18.92-.02-.06,.05-.15,.13-.4,.25,.1,.51,.18,.74,.31,.62,.36,1.19,.85,1.85,1.1,5.28,2.02,9.8,5.2,13.89,9.04,1.82,1.71,3.63,3.42,5.45,5.13,.07,.11,.12,.24,.2,.34,.03,.03,.12,.01,.19,.02-.02-.11-.01-.28-.07-.31-.11-.05-.26,0-.39,0,0-.22,.1-.5,0-.65-.26-.4-.58-.78-.91-1.12-3.51-3.55-6.97-7.16-10.89-10.28-2.79-2.23-4.73-5.02-5.88-8.39-.77-2.28-1.61-4.53-2.48-6.96-3.64,2.21-6.81,4.66-8.14,8.85-1.1,3.46-2.33,6.88-3.96,10.13-2.06,4.12-3.62,8.44-5.36,12.69-.27,.66-.41,1.39-.69,2.36,.39-.43,.68-.64,.81-.93,2.48-5.35,5.64-10.31,8.67-15.35,.74-1.24,1.47-2.48,2.28-3.86,.22,.36,.46,.6,.51,.88,.73,3.48,1.23,6.98,1.08,10.55-.1,2.45-.81,4.76-1.48,7.08-1.61,5.61-2.55,11.32-2.53,17.16,0,2.41,.32,4.82,.52,7.22,.02,.2,.22,.39,.33,.59-.22,.5-.35,.98,.2,1.37-.04,.14-.08,.27-.12,.4,.04-.12,.07-.24,.11-.36-.13-.45,.33-1.02-.25-1.39,.09-.87,.28-1.75,.24-2.61-.22-4.62,.24-9.17,1.18-13.68,.79-3.81,2.35-7.34,3.99-10.96,.24,.25,.5,.39,.54,.58,.79,3.64,2.4,7,3.58,10.51,.79,2.37,1.67,4.71,2.56,7.04,.34,.88,.51,1.88,1.33,2.51q.25,.81,.81,1.33c-.06-.24-.07-.48-.17-.68-.13-.26-.32-.49-.48-.73Z"/>
  <path class="cls-1" d="M44.84,306.45c-2.55-1.19-5.11-2.38-7.66-3.57-2.34-1.09-4.62-2.28-6.73-3.78-.58-.41-1.25-.71-2-1.12,.73-.59,1.64-.51,2.44-.69,.84-.2,1.72-.23,2.89-.37-4.09-1.9-7.91-3.68-11.71-5.44-.04-.69,.48-.69,.8-.75,1.01-.2,2.04-.32,3.1-.48-.12-.26-.14-.47-.25-.51-3.01-1.25-5.65-3.11-8.09-5.22-2.14-1.85-4.25-3.7-6.86-4.69-.1-.55,.17-.71,.51-.7,.64,.02,1.28,.07,1.92,.15,.78,.1,1.54,.16,2.54-.06-3.1-1.75-5.64-3.81-7.87-6.29-1.18-1.32-2.54-2.47-3.8-3.72-.34-.33-.61-.72-1.1-1.3,.7,0,1.15-.03,1.6,0,.39,.02,.78,.09,1.26,.14-1.58-2.46-2.15-2.89-5.81-4.33,3.5,.24,6.42-.71,9.42-1.08,2.41-.3,4.75-.91,6.96-1.93,2.56-1.18,5.13-2.34,7.69-3.54,2.41-1.13,4.81-2.28,7.54-2.46,.14,0,.26-.16,.47-.29-.34-1.35-1.83-1.31-2.61-2.01,.02-.17,.01-.29,.05-.31,.14-.07,.29-.12,.44-.16,1.25-.29,2.51-.59,3.77-.86,1.42-.3,2.88-.45,4.26-.88,2.76-.87,5.47-1.89,8.2-2.85-.42-1.29-1.86-.97-2.47-1.82,1.95-1.06,6.38-1.99,9.17-1.94-.33-1.14-1.79-.96-2.36-1.87,.19-.17,.29-.33,.39-.33,1.61-.09,3.22-.13,4.82-.25,4.53-.35,5.16-.31,9.33,.67,.39-.43,0-.71-.22-1-.49-.61-1-1.2-1.52-1.83,5.13-2.05,11.34-1.18,18.5,2.59,.12-.37,.25-.7,.34-1.04,.16-.62,.26-1.26,.44-1.88,.08-.3,.28-.56,.48-.96,.55,.08,1.11,.09,1.62,.26,4.01,1.28,7.86,2.9,11.45,5.12,1.85,1.14,3.73,2.24,5.56,3.42,2.79,1.79,5.22,4.04,7.6,6.32,.75,.72,1.35,1.58,1.9,2.63-.56,.81-1.08,1.6-1.64,2.37-2.93,3.98-4.27,8.48-4.15,13.37,.11,4.42,1.19,8.6,3.78,12.3,1.63,2.32,3.32,4.57,5.93,5.89,.13,.07,.21,.24,.37,.45-.61,6.7-2.86,12.9-6.49,18.71-1.41-.99-1.77-2.59-2.43-4.17-2.66,3.62-6.04,6.07-9.5,8.44-.85,.58-1.65,1.24-2.53,1.9-1.12-1.12-.28-2.58-.89-3.86-2.42,3.36-5.97,4.73-9.73,5.87-.13-.54-.22-.9-.3-1.27-5.37,1.55-7.26,1.83-10.36,1.56,.36-.6,.73-1.2,1.06-1.76-.34-.54-.58-.14-.85-.08-.85,.19-1.71,.44-2.58,.49-3,.16-5.92-.4-9.04-1.17,.45-.58,.82-1.04,1.19-1.51-.16-.09-.3-.25-.4-.22-3.17,.82-6.22,.16-9.37-.67,.11-.53,.2-.96,.29-1.4-.14-.08-.29-.24-.41-.22-2.14,.33-4.16-.11-6.16-.82-1.34-.48-2.68-.94-3.89-1.61,.2-1.04,1.51-.68,1.68-1.6,.14,0,.28-.02,.41-.02-.13,.03-.26,.06-.39,.09Zm26.13-14.31c.38-.04,.75-.11,.92-.53,.53-.26,.72-.73,.8-1.27,.6,.06,.65-.39,.75-.8,1.02-.26,1.45-1.21,2.12-1.86,2.12-2.09,4.05-4.38,6.54-6.07,2.13-1.45,4.28-2.87,6.47-4.22,3.1-1.91,6.38-3.45,9.97-4.22,.37-.08,.71-.28,1.13-.45-1.45-2.34-.6-4.62-.15-6.93-2.18-1.96-4.01-4.2-5.57-6.62-2.33-3.6-5.12-6.82-7.9-10.06-.16-.18-.29-.62-.84-.28,.43,.59,.85,1.16,1.25,1.75,2.19,3.19,4.45,6.33,6,9.91,.74,1.71,1.61,3.33,2.92,4.69,.08,.08,.03,.27,.04,.55-.64,0-1.28,.04-1.91,0-4.09-.31-8.18-.86-12.29-.68-1.8,.08-3.29-.34-4.7-1.47-2.27-1.81-4.71-3.36-7.36-4.59-.64-.3-1.21-.77-1.84-1.14-.56-.16-1.12-.32-1.68-.48-.01,.1-.03,.19-.04,.29,.6,.05,1.19,.1,1.79,.16-.02,.23-.14,.59-.03,.68,.56,.45,1.17,.84,1.77,1.24,1.74,1.16,3.48,2.3,5.21,3.47,.37,.25,.84,.52,.53,1.25-.25,.02-.57,.12-.86,.06-2.51-.54-5.04-1.02-7.53-1.68-3.58-.95-7.22-1.57-10.9-1.97-2.48-.26-4.97-.32-7.45-.03-.43,.05-1-.06-1.24,.51-.5-.28-.99-.41-1.48,.16,.54,.07,1.06,.38,1.45-.22,.55,.09,1.1,.27,1.64,.24,4.16-.19,8.19,.55,12.12,1.83,3.06,1,6.08,2.15,9.1,3.25,.26,.09,.46,.34,.72,.53q-.96,.82-1.46,.94c-1.49,.35-2.99,.66-4.46,1.07-3.72,1.05-7.43,2.15-11.14,3.23-3.18,.92-6.28,2.05-9.19,3.65-.53,.29-1.02,.65-1.53,.98,.41,.15,.68,.05,.95-.06,2.96-1.29,6.01-2.32,9.14-3.1,3.85-.96,7.76-1.41,11.73-1.22,.71,.03,1.46-.04,2.05,.62-.89,2.29-3.07,3.6-4.33,5.63,.45-.16,.85-.38,1.18-.67,1.25-1.13,2.55-2.23,3.71-3.46,1.6-1.7,3.52-2.33,5.82-2.43,5.42-.24,10.78,.3,16.12,1.08,.1,.01,.17,.22,.23,.3-1.73,1.29-3.52,2.5-5.17,3.88-3.85,3.22-6.96,7.15-10.16,10.98-.24,.29-.31,.72-.46,1.08-.58-.04-.63,.41-.74,.81-.69,.16-.68,.76-.8,1.28-.35,.16-.7,.32-1.03,.48,.06,.1,.12,.21,.18,.31-.06,0-.13,0-.19,0,.03-.11,.06-.23,.09-.34Z"/>
  <path class="cls-1" d="M227.98,95.13c.05-.29,.02-.77,.17-.83,.47-.19,1.01-.07,1.24,.42,.21,.45,.24,.98,.35,1.51,1.18-.43,.71-2.08,2.1-2.37,.14,.85,.28,1.67,.45,2.65,1.38-1.03,1.43-2.97,2.84-3.7,1.26,.54,.35,1.91,1.21,2.53,.62-.3,.6-.92,.78-1.42,.25-.68,.42-1.39,.68-2.06,.07-.18,.35-.38,.53-.38,.18,0,.43,.2,.52,.38,.17,.34,.25,.72,.39,1.15,1.15-.42,1.21-1.99,2.59-2.18,.25,.62,.51,1.26,.86,2.13,.97-1.27,1.6-2.65,2.92-3.61,.41,1.37-.36,2.43-.45,3.7,1.04-.46,1.07-1.61,1.75-2.25,.63-.59,1.17-1.28,1.85-2.03,.51,.62,.24,1.18,.21,1.67-.03,.48-.15,.95-.24,1.43-.1,.55-.22,1.1-.41,2.05,1.38-2.01,2.06-4.01,3.82-5.67-.07,1.95-.13,3.59-.19,5.4,1.08-1.36,2.1-2.49,2.59-3.99,.11-.33,.5-.56,.82-.9,.88,1.34-.3,2.79,.49,4.09,1.23-1.02,1.49-2.77,3.09-3.62,.13,.48,.33,.84,.3,1.18-.14,1.52-.35,3.03-.55,4.71,1.54-1.18,1.24-3.4,2.92-4.49,.45,1.77-.07,3.48-.15,5.47,.96-.67,1.23-1.54,1.65-2.24,.4-.66,.63-1.42,1.04-2.37,1.36,2.26-.4,4.24,.04,6.41,.24-.24,.44-.35,.51-.51,.56-1.35,.97-2.72,.99-4.21,0-.44,.36-.74,.82-.71,.47,.02,.74,.41,.73,.82-.09,2.25-.23,4.49-.35,6.7,.99-1.36,1.25-3.35,2.95-4.57,1.07,1.34,.4,2.63,.36,3.84-.03,1.19-.21,2.38-.34,3.72,1.8-1.71,1.93-4.18,3.35-5.87,.67,.12,.59,.56,.52,.93-.43,2.21-.88,4.42-1.4,7,1.13-1.78,1.53-3.59,3.12-4.88,.21,2.24-.54,4.19-.41,6.4,.97-1.3,1.71-2.64,2.99-3.7,.56,1.03,.11,1.84-.05,2.65-.17,.86-.33,1.71-.55,2.85,.59-.21,.92-.32,1.5-.52,.13,.39,.27,.83,.4,1.24,.23-.05,.47-.04,.51-.12,.44-.94,.84-1.9,1.27-2.89,.47,.8,.28,1.61,.06,2.38-.43,1.45-.94,2.88-1.44,4.42,1.37-.56,2.09-1.8,3.09-2.62,.66,.18,.55,.66,.47,.98-.31,1.24-.69,2.47-1.07,3.79,1.32-.76,1.5-2.33,2.43-3.33,.55-.09,.68,.34,.76,.71,.29,1.28,.22,2.56-.18,3.82-.2,.61-.42,1.21-.61,1.78,.37,.58,.71,.12,1.05,.12,.69,0,1.38,.11,2.19,.19-.43,1.22-.79,2.26-1.27,3.63,.98-.61,1.69-1.06,2.49-1.56,.81,1.31,.3,2.42-.07,3.52-.14,.42-.32,.83-.64,1.63,.98-.56,1.6-.91,2.31-1.31,.32,.37,.59,.69,.89,1.04q-1.61,.95-2.32,2.38c.8,.55,1.96-.61,2.67,.6-.67,.79-1.37,1.61-2.09,2.46,.85,.92,1.57,.07,2.3,.07,.34,.44,.05,.71-.26,.98-.6,.52-1.25,1.02-1.25,2.03,1.22,.25,1.89-1.2,3.14-.97,.03,1.82-2.3,2.16-2.54,4.09,.53-.24,.87-.37,1.17-.54,.35-.2,.71-.51,1.06-.12,.34,.39,.07,.76-.28,1-.96,.65-1.52,1.59-2.1,2.89,1.11-.68,2.01-1.23,2.94-1.8-.13,.95-.35,1.33-1.33,2.82-.6,.9-1.66,1.44-1.97,2.59,1.62-1.28,3.31-2.42,5.1-3.55,.21,.71-.4,.83-.62,1.17-.22,.34-.52,.62-.76,.94-.29,.38-.55,.79-.86,1.17-.25,.31-.55,.58-.85,.9,1.46-.01,1.71-.08,2.99-.84,1.18-.7,2.33-1.45,3.52-2.12,.45-.25,.99-.36,1.66-.27-.2,.2-.37,.44-.59,.61-2.27,1.69-4.35,3.58-6.36,5.57-.63,.62-1.34,1.17-2.05,1.69-1.99,1.47-4.2,1.92-6.64,1.41-3.02-.64-5.85-1.81-8.71-2.9-5.81-2.23-11.17-5.39-16.72-8.15-2.44-1.21-4.98-2.3-7.57-3.16-3.32-1.1-6.81-1.23-10.28-.88-1.94,.2-3.75,.9-5.49,1.77-2.98,1.49-5.6,3.49-8.11,5.66-2.01,1.74-4.06,3.43-6.1,5.13-.37,.31-.78,.57-1.17,.86-5.11,3.89-10.49,3.5-15.92,.86-2.46-1.2-4.75-2.72-6.71-4.68-.5-.5-1.09-.9-1.72-1.4,.44-.39,.85-.74,1.4-1.22-.54-.38-.97-.69-1.41-.98-.52-.34-1.11-.53-1.38-1.24-.14-.37-.72-.59-1.13-.82-.39-.22-.82-.38-1.35-.61,1.02-.82,2.45-.1,3.21-1.29-1.1-1.25-2.71-1.5-4.61-2.08,.66-.25,.93-.45,1.17-.43,.72,.08,1.42,.28,2.14,.35,.36,.03,.73-.13,1.34-.25-.98-.68-1.9-.89-2.52-1.73-.41-.56-1.35-.73-2.04-1.06,.06-1.03,1.1-.42,1.47-1.03,.31-.51,.94-.82,1.47-1.27-.45-.52-1.11-.42-1.7-.51-.62-.09-1.01-.41-1.27-.87,.15-.61,.58-.59,.97-.59,.85,0,1.76,.36,2.57-.42-.86-1.39-2.5-1.78-3.68-2.67,.24-.62,.6-.3,.87-.35,.24-.04,.48-.05,.71-.1,.31-.07,.63-.15,.92-.29,.18-.09,.31-.3,.57-.57-1.16-.69-2.57-.66-3.62-1.72,.86-.15,1.59-.27,2.34-.4-.22-1.13-1.41-.76-1.9-1.59,1.16-.28,2.22-.53,3.42-.82-.5-1.18-1.72-1-2.35-1.66-.19-.49,.11-.75,.52-.86,.69-.17,1.4-.28,2.09-.41-.12-.89-.89-.97-1.32-1.4-.41-.43-.72-.89-.19-1.6,.53,.02,1.13,.05,1.73,.07,.03-.21,.11-.38,.06-.51-.27-.75-.57-1.48-.95-2.46,.65,.06,1.08,.1,1.68,.16-.02-.86-.12-1.72-.02-2.56,.1-.86,.04-1.79,.76-2.64,.76,.53,.38,1.54,.99,2.17,.46-.05,.27-.59,.49-.81,.32-.33,.76-.58,.99-.95,.2-.32,.19-.77,.25-1.17,.06-.39,.09-.78,.17-1.41,.78,.88,.11,2.06,1,2.68,.98-.85,.19-2.6,1.59-3.31,.87,1.25-.07,2.6,.49,3.94,1.17-1.17,1.19-2.88,2.13-4.27,1,1.09-.44,2.12,.26,3.09,.75-.33,.7-1.21,1.16-1.71,.48-.51,.9-1.08,1.73-1.36,.1,.73,.19,1.35,.32,2.22,.39-.66,.68-1.15,.94-1.6,.93,.03,1.43,.58,1.95,1.07,.53,.5,1.08,.99,1.49,1.57,2.11,2.97,3.94,6.1,5.01,9.6,1.58,5.14,2.08,10.41,1.59,15.77-.05,.55-.07,1.09,.16,1.72,.16-.38,.35-.76,.49-1.15,1.98-5.7,2.02-11.55,1.13-17.43-.4-2.63-.95-5.23-1.48-7.83-.36-1.77-.34-3.5,.08-5.26,.5-2.11,1.75-3.39,3.85-3.87,.39-.09,.78-.17,1.24-.27,.34,.31,.68,.62,1.16,1.06,.32-.86,.61-1.64,.88-2.39,.48,0,.87-.02,1.24-.01-.1,.12-.22,.21-.28,.33-.03,.07,.06,.18,.1,.28,.01-.07,.01-.14,.03-.21,.04-.13,.09-.26,.13-.38Zm21.15,18.72c.12,.64,.16,.95,.24,1.25,.65,2.37-.05,4.44-1.41,6.37-.9,1.27-2.07,1.92-3.67,1.95-1.42,.02-2.7-.3-3.94-.95-2.7-1.39-4.09-3.82-5.04-6.53-.98-2.78-.29-4,2.57-4.86,1.46-.44,2.95-.81,4.43-1.18,1.25-.32,2.49-.68,3.76-.89,2.94-.5,5.58,.28,7.93,2.1,2.31,1.8,3.23,4.17,2.77,7.03-.19,1.18-.52,2.37-.97,3.48-.66,1.65-.81,3.3-.28,4.96,.78,2.45,1.63,4.88,2.53,7.29,.3,.8,.76,1.56,1.45,2.25,4.05-3.22,6.22-7.2,5.81-12.39-.1-1.28-.31-2.56-.52-3.83-.76-4.58-3.28-7.98-7.14-10.43-2.88-1.82-5.99-3.15-9.28-4-2.88-.75-5.74-.57-8.55,.45-2,.72-3.82,1.75-5.34,3.23-1.01,.98-2.06,1.14-3.3,.66-.53-.2-1.05-.41-1.58-.61-1.79-.69-3.58-1.37-5.53-2.12-.03,.61-.17,1.1-.06,1.52,1.08,3.93,2.64,7.64,5.74,10.44,1.3,1.18,2.8,2.17,4.3,3.09,2.26,1.39,4.56,2.72,7.14,3.49,1.09,.32,2.17,.51,3.32,.42,4.5-.35,6.86-4.1,7.53-7.12,.49-2.22-.3-3.61-2.9-5.06Zm-52.62,26.78c.8,.17,1.34,.09,2.07-.25-.85-.45-1.41-.44-2.07,.25Zm-2.61-8.44q1.18,.82,2.35-.05c-.87,.02-1.51,.03-2.35,.05Z"/>
  <path class="cls-1" d="M329.63,93.9c.28-.56,.63-1.1,.82-1.7,.64-1.99,1.18-4.02,1.83-6.01,.99-3.06,2.06-6.1,3.67-8.92,.23-.4,.34-.87,.38-1.39-1.29,.99-1.87,2.49-2.73,3.77-.84,1.26-1.62,2.56-2.6,4.13-.09-.86-.15-1.4-.19-1.93-.2-2.65-.27-5.31-.6-7.93-.44-3.43-1.06-6.83-1.66-10.24-.25-1.39-.18-2.69,.43-3.99,1.56-3.37,2.7-6.89,3.58-10.5,1.03-4.24,1.56-8.54,1.35-12.92-.02-.37,.12-.83-.43-.97,.41-.52,.39-1.1,.2-1.69-.11-.41-.22-.81-.33-1.22,.03-.11,.06-.23,.1-.34,.01,.05,.05,.12,.03,.16-.03,.05-.1,.08-.16,.12,.14,.41-.18,.99,.42,1.25-.35,.54-.53,1.09-.21,1.7-.21,2.31-.4,4.63-.65,6.94-.45,4.18-1.33,8.25-3.23,12.03-.5,1-1.16,1.92-1.76,2.86-.16,.24-.4,.43-.68,.72-.21-.32-.4-.48-.43-.68-.97-6.26-1.91-12.53-2.87-18.79-.22-1.43-.49-2.85-.79-4.26-.07-.34-.37-.63-.56-.95,.03-.43,.07-.85,.1-1.28l-.18-.22c.05-.03,.1-.06,.15-.09,.03,.09,.06,.18,.08,.28-.23,.42-.49,.84-.09,1.29-.4,2.48-.22,4.98-.16,7.46,.09,3.56-.1,7.08-.56,10.6-.03,.23-.15,.44-.28,.84-.36-.3-.68-.5-.91-.77-2.56-3-5.12-6.01-7.67-9.02-.47-.55-.92-1.13-1.3-1.74-1.55-2.45-3.07-4.92-4.61-7.38-.78-1.25-.97-2.45-.18-3.84,1.11-1.96,2.11-3.98,3.05-6.03,4.85-9.24,4.85-23.24,4.85-23.24,0,0,12.93,5.75,19.89,18.51,.33-.76,.57-1.32,.81-1.88,.16,.05,.35,.06,.41,.15,.88,1.35,1.81,2.67,2.59,4.08,.61,1.11,1.03,2.32,1.56,3.55,.91-.93,.15-2.19,.75-3.38,.98,1.61,1.6,3.21,2.23,4.78,.66,1.63,1.23,3.3,1.92,5.18,.35-.78,.61-1.38,.87-1.96,.27,.09,.5,.1,.54,.2,.89,1.8,1.84,3.58,2.6,5.43,.32,.77,.24,1.69,.35,2.6,.58-.42,1.14-.82,1.92-1.39,.29,2.27,.43,4.29,.28,6.71,.77-.66,1.16-1,1.56-1.34,.11,.15,.29,.27,.27,.37-.24,1.33-.51,2.66-.8,4.1,.71,.27,1.14-.67,1.91-.61,.11,.12,.37,.28,.39,.47,.08,.95,.21,1.92,.11,2.86-.18,1.66-.5,3.31-.76,4.93,.34,.36,.61,.09,.9-.02,.21-.08,.42-.15,.63-.23,.09,.17,.23,.32,.2,.43-.3,1.17-.64,2.33-.93,3.5-.21,.84-.36,1.7-.51,2.42,.62,.71,1.01-.14,1.47,.13,.41,.21,.44,.59,.22,.98-.53,.9-1.13,1.76-1.63,2.68-.49,.91-.87,1.88-1.3,2.84,.91,.6,1.51-.68,2.42-.1-.82,1.69-1.67,3.38-2.46,5.1-.77,1.68-1.47,3.4-2.27,5.27,.65,.04,1.21,.07,2.01,.12-1.34,1.41-2.49,2.63-3.64,3.84-2.5,2.62-4.97,5.28-7.52,7.84-2.91,2.92-6.44,4.79-10.39,5.92-.68,.2-1.26,.16-1.82-.26,0,0,.05,.07,.05,.07Z"/>
  <path class="cls-1" d="M347.51,172.16c.09-.41,.1-.73,.22-1,.65-1.51,1.68-2.75,2.95-3.77,3.78-3.06,7.95-5.49,12.39-7.45,2.17-.95,4.48-1.29,6.83-1.33,4.29-.06,8.52,.39,12.66,1.56,1.94,.55,3.88,1.07,5.83,1.61,6.64,1.82,13.38,2.84,20.29,2.66,1.35-.03,2.74-.18,4.06,.55,.68,2.37,.62,4.76,.19,7.15-.78,4.39-3.05,7.97-6.35,10.84-6.18,5.39-13.45,8.17-21.64,8.36-5.21,.12-10.01-1.55-14.45-4.17-2.33-1.37-3.82-3.65-5.36-5.83-1.02-1.44-2.07-2.88-3.23-4.21-2.51-2.86-5.74-4.35-9.51-4.7-1.28-.12-2.57-.11-3.86-.17-.3-.01-.6-.07-1.03-.12Zm13.96-.12c.3-.12,.49-.14,.58-.25,1.62-1.86,3.69-2.48,6.08-2.28,.72,.06,1.44,.09,2.16,.17,3.54,.41,6.93,1.44,10.32,2.46,1.3,.39,2.61,.76,4.02,1.16-.1-.23-.11-.34-.16-.37-3.13-1.46-6.23-2.97-9.51-4.11-5.12-1.77-10.24-1.84-15.42-.41-.28,.08-.54,.24-.99,.45,.86,1.37,2.16,2.06,2.93,3.18Z"/>
  <path class="cls-1" d="M190.13,303.99c.39,.48,.82,.93,1.17,1.44,4.22,6.21,10.03,10.68,16.45,14.28,5.85,3.28,12.1,5.68,18.84,6.51,4.92,.61,9.81,.43,14.61-.85,2.72-.72,5.4-1.6,8.1-2.4,.53-.16,1.07-.3,1.57-.43,.35,.42,.1,.63-.15,.84-1.66,1.4-3.32,2.8-4.97,4.2-1.78,1.51-3.63,2.95-5.31,4.56-2.21,2.11-4.29,4.35-6.41,6.55-1.34,1.39-2.66,2.8-4,4.19-.43,.45-.9,.87-1.32,1.27-.55-.22-.44-.57-.29-.83,1.39-2.47,2.32-5.12,3.07-7.85,.29-1.07,.82-2.09,1.24-3.14-.48-.75-1.26-.61-1.95-.63-4.3-.16-8.46-1.05-12.57-2.26-6.9-2.04-13.05-5.45-18.6-9.98-2.76-2.25-5.08-4.94-7.13-7.84-1.57-2.22-2.28-4.77-2.35-7.64Z"/>
  <path class="cls-1" d="M210.81,309.05c.1,.09,.25,.17,.27,.28,.02,.08-.14,.2-.21,.3-.03-.06-.08-.13-.07-.19,.01-.14,.06-.28,.09-.42,0,0-.07,.04-.07,.04Z"/>
  <path class="cls-1" d="M109.54,182.92c-.09-.08-.17-.17-.26-.25-.12,.4,.09,.29,.3,.2,0,0-.04,.05-.04,.05Z"/>
  <path class="cls-1" d="M112.75,190.21c-.13,.04-.26,.08-.39,.11-.01,0-.05-.1-.07-.15,.16,.03,.32,.07,.48,.11,0,0-.02-.07-.02-.07Z"/>
  <polygon class="cls-1" points="116.76 159.52 116.75 159.72 116.61 159.65 116.76 159.52"/>
  <path class="cls-1" d="M148.19,151.7c-.7-.15-1.55,.43-2.36-.53,1.04-.18,1.71,.16,2.39,.56,0,.01-.03-.04-.03-.04Z"/>
  <path class="cls-1" d="M349.15,270.1c.08,.06,.16,.12,.25,.17-.03-.04-.05-.11-.1-.13-.05-.02-.12,0-.18,0,0,0,.03-.05,.03-.05Z"/>
  <path class="cls-1" d="M331.85,148.78c.15,0,.32-.04,.46,0,.09,.03,.15,.18,.23,.27-.13,.01-.28,.07-.38,.02-.13-.06-.21-.22-.32-.34,0-.01,0,.04,0,.04Z"/>
</svg>